<svg xmlns="http://www.w3.org/2000/svg" pointer-events="none" class="leaflet-zoom-animated" width="1140" height="632"
     viewBox="-95 -53 1140 632"
     style="transform: translate3d(-95px, -53px, 0px);">
    <g><path class="leaflet-interactive" stroke="#201920" stroke-opacity="1" stroke-width="2" stroke-linecap="round"
             stroke-linejoin="round" fill="none" d="M245 245L245 241L244 242L242 238L246 236L245 233L248 230L249 231L252 228L254 228L254 226L257 227L259 225L260 228L266 228L271 220L276 221L279 218L280 219L280 217L286 215L289 212L296 210L296 203L299 200L298 199L301 198L301 194L298 187L298 181L294 179L294 177L307 173L315 175L316 174L313 171L313 169L319 151L326 154L335 155L339 153L341 151L339 140L343 136L345 137L348 135L350 131L349 130L351 128L357 128L359 135L364 137L366 141L372 141L373 144L376 143L376 145L379 147L381 154L383 154L384 157L384 160L382 162L383 165L381 168L382 175L383 174L386 176L387 175L393 177L403 177L414 185L419 185L418 188L420 188L421 193L427 202L433 201L452 204L468 204L475 209L476 208L481 211L491 212L492 214L496 215L499 212L516 205L526 206L537 203L545 195L549 194L552 191L548 185L549 180L552 176L565 180L569 178L574 172L581 172L587 167L586 166L591 161L595 161L596 158L600 159L602 157L607 156L609 158L616 157L615 152L605 142L600 141L596 145L587 143L584 146L581 143L581 141L583 139L590 119L598 123L605 118L611 116L612 113L610 113L610 111L615 104L617 96L620 93L622 93L623 90L622 85L620 83L617 84L617 82L625 74L626 75L642 71L646 71L650 74L651 73L653 76L656 77L662 77L662 80L664 80L665 84L668 86L667 89L669 90L668 91L671 96L670 97L672 98L672 104L675 107L676 114L678 114L677 119L680 123L687 122L687 124L693 124L693 126L695 126L699 131L703 131L701 134L704 138L702 140L706 146L717 145L722 140L724 141L731 137L738 137L735 138L734 143L736 145L730 151L731 152L728 159L729 162L722 175L719 176L712 173L710 175L711 176L705 178L708 188L708 194L706 200L701 202L702 205L699 202L699 200L696 199L695 204L693 206L692 205L689 210L681 210L684 215L682 217L675 216L673 214L674 213L672 213L673 212L670 213L665 222L658 225L652 230M285 312L282 309L282 307L285 304L287 308L289 306L289 302L284 296L284 292L287 289L281 285L279 277L274 278L267 275L267 273L264 274L262 271L263 268L260 265L258 265L258 263L250 261L252 259L254 260M511 402L509 402L510 399L508 399L510 395L508 393L503 394L499 390L497 390L495 394L490 394L487 397L485 395L483 395L480 398L477 395L475 395L474 398L469 397L469 409L465 408L465 404L457 406L457 404L455 404L454 401L450 401L450 395L452 393L447 391L447 387L445 385L447 383L441 383L437 385L436 384L438 382L436 380L438 376L437 375L445 367L444 366L446 362L446 354L443 351L443 353L441 351L441 347L437 345L437 343L435 345L436 346L434 346L435 349L432 351L425 346L421 346L418 347L418 349L415 351L410 352L404 358L400 359L392 359L392 353L388 353L387 348L382 349L373 346L369 350L367 355L365 353L366 348L364 347L362 349L357 350L353 350L348 347L346 349L344 347L344 349L340 345L337 346L336 342L333 343L328 338L328 336L324 338L319 333L317 333L317 331L316 332L315 330L313 330L312 327L307 326L305 330L291 320L288 321L285 318L285 312M520 406L515 405L511 402M523 535L522 526M531 451L534 455L535 460M539 484L537 492M551 556L559 553M581 525L586 519M605 495L608 486M609 453L609 462M617 428L612 436M632 404L626 412M637 389L639 379"/><path class="leaflet-interactive" stroke="#201920" stroke-opacity="1" stroke-width="2" stroke-linecap="butt" stroke-linejoin="round" stroke-dasharray="4,4" stroke-dashoffset="4" fill="none" d="M254 260L256 258L254 256L254 248L252 246L249 245L247 247L245 245"/><path class="leaflet-interactive" stroke="gray" stroke-opacity="1" stroke-width="1" stroke-linecap="round" stroke-linejoin="round" stroke-dasharray="8,4,4,4" fill="none" d="M565 400L565 400M570 397L568 397L567 400L572 400L572 398L570 397"/><path class="leaflet-interactive" stroke="#4190da" stroke-opacity="1" stroke-width="1" stroke-linecap="round" stroke-linejoin="round" fill="none" d="M569 399L569 397L567 398L566 395L565 400L563 402L562 401L562 403L559 402L557 404L554 403L552 405L542 407L538 410L538 412L541 415L539 417L535 417L533 411L535 407L533 405L531 407L529 407L529 405L520 406M539 409L539 409M539 409L539 411L539 409M565 400L565 400M569 399L569 399M569 399L569 399M569 399L569 399M616 360L613 361L615 361L616 364L613 365L614 368L612 370L616 370L614 372L611 371L611 373L609 373L610 374L609 375L609 373L607 377L606 376L607 377L605 380L602 379L602 381L596 388L592 388L588 394L582 394L580 396L578 394L575 397L573 395L573 397L572 398L572 396L570 398L572 398L569 399M616 360L616 360M631 338L629 342L630 345L627 348L626 347L625 350L624 349L616 362L615 361L617 359L616 360M629 264L627 266L623 266L624 269L623 268L622 271L619 272L619 270L619 272L610 283L620 291L624 301L624 305L629 309L628 310L632 312L632 314L627 312L625 314L627 316M627 316L633 321L632 322L634 324L630 322L625 325L628 326L632 331L634 331L631 333L633 334L632 338M629 264L629 264M629 264L629 264M635 238L632 242L628 244L625 243L630 240L630 238L629 239L626 236L628 236L628 234L635 227L634 224L633 225L631 223L626 222L621 227L621 229L614 232L611 235L611 237L605 241L605 243L602 242L602 240L600 240L598 244L598 248L600 248L600 250L607 251L610 254L611 253L611 255L608 256L608 258L611 261L615 261L615 259L619 256L618 255L622 254L628 256L628 258L634 257L638 259L635 264L629 264M629 264L629 264M631 338L631 338M631 338L631 338M631 338L631 338M632 338L631 338M632 338L632 338M634 330L634 330M634 330L634 330M634 330L634 330M635 330L634 330M634 330L632 328L634 328L635 330M635 330L635 330M635 328L636 327L635 328M635 328L635 328M635 238L635 238M652 230L650 234L644 234L635 238M636 323L636 323M636 323L636 323M638 322L638 322M527 405L527 405M529 410L529 410M532 420L532 420M532 524L533 522L536 523L535 522L532 524M533 435L525 431L525 425L530 420L542 417L545 421L542 424L540 430L534 433L533 435M536 520L537 519L536 520M539 413L539 413M540 409L540 409M540 520L540 520M540 518L541 517L540 518M541 410L541 408L541 410M541 416L541 416M541 518L541 518M541 411L541 411M546 454L546 454M548 444L549 443L548 444M548 514L548 514M548 449L548 449M548 508L548 508M549 522L549 522M549 520L549 520M549 449L549 449M549 448L549 448M549 519L550 520L549 519M549 451L549 451M549 513L550 514L549 513M549 448L549 448M550 521L550 521M550 448L550 448M550 451L551 450L550 451M550 449L551 448L550 449M550 452L550 452M552 518L552 518M552 450L552 450M552 552L552 552M554 512L554 512M554 512L554 512M554 552L554 552M554 446L554 446M554 455L554 455M554 444L555 445L554 444M554 511L555 512L554 511M554 551L554 551M555 511L555 511M555 538L555 538M555 445L555 445M555 446L555 446M556 450L555 451L556 450M556 405L556 405M556 537L556 537M556 453L557 452L556 453M556 449L557 448L556 449M556 506L556 506M556 538L557 537L556 538M556 536L557 537L556 536M557 512L557 512M557 535L557 535M557 542L557 542M557 405L557 405M557 538L557 538M557 540L557 540M557 449L558 450L557 449M557 542L557 542M558 404L557 405L558 404M558 450L558 450M558 447L558 447M559 405L558 404L559 405M559 511L559 511M559 405L559 405M559 446L559 446M559 520L559 520M559 506L559 506M559 506L559 506M560 543L560 543M560 515L560 515M560 423L560 423M560 505L560 505M560 403L560 403M561 402L561 402M561 403L561 403M562 402L562 402M562 532L562 532M562 518L562 518M562 518L563 517L562 518M565 400L565 400M565 500L565 500M565 527L565 527M565 511L566 510L565 511M566 509L566 509M566 402L566 402M566 456L566 456M566 402L566 402M566 402L566 402M566 402L566 402M566 522L567 521L566 522M567 524L567 524M567 398L567 398M567 401L567 401M567 426L567 426M567 400L569 400L567 400M567 502L567 502M567 457L567 457M567 455L568 456L567 455M567 519L568 518L567 519M567 522L572 519L573 520L571 522L567 522M568 511L567 512L568 511M568 454L568 454M568 512L568 512M568 511L569 512L568 511M568 458L568 458M569 502L569 502M569 495L569 495M569 518L569 518M569 453L569 453M569 400L569 400M570 402L570 402M570 507L570 507M570 399L570 399M570 402L570 402M570 512L570 512M570 452L570 452M570 401L570 401M570 457L570 457M570 500L570 500M570 504L570 504M570 400L570 400M570 456L571 457L570 456M571 505L571 505M571 491L571 491M571 397L571 397M571 494L571 494M571 399L571 399M571 501L571 501M571 496L571 496M571 490L571 490M572 452L572 452M572 503L572 503M572 456L572 456M572 504L572 504M572 495L572 495M572 496L572 496M572 503L572 503M572 518L573 517L572 518M573 503L573 503M573 503L573 503M573 491L573 491M573 503L573 503M573 512L574 511L573 512M573 456L573 456M573 503L574 502L573 503M573 491L574 490L573 491M573 398L573 398M574 522L574 522M574 517L574 517M574 499L574 499M574 490L574 490M574 494L575 493L574 494M574 451L574 451M574 504L574 504M575 517L575 517M575 493L575 493M575 454L575 454M575 496L575 496M575 525L575 525M575 519L575 519M576 495L576 495M576 452L576 452M576 523L576 523M576 493L576 493M578 515L579 516L578 515M578 514L579 515L578 514M579 501L579 501M579 470L579 470M580 507L580 507M580 503L580 503M580 515L581 514L580 515M582 498L582 498M582 498L582 498M582 498L582 498M582 499L583 498L582 499M583 498L583 498M583 505L584 504L583 505M583 495L583 495M584 410L584 410M584 409L585 410L584 409M584 508L584 508M585 502L585 502M586 506L586 506M587 511L587 511M588 504L588 504M588 509L588 509M588 504L588 504M588 499L590 499L588 499M589 504L589 504M590 498L590 498M590 450L590 450M590 490L591 491L590 490M590 413L590 413M590 510L590 510M591 412L591 414L591 412M591 498L591 498M594 389L592 389L594 389M594 497L594 497M594 496L594 496M595 500L595 500M595 497L596 496L595 497M595 493L595 493M595 502L595 502M596 494L596 494M598 497L598 497M598 494L598 494M598 460L599 459L598 460M599 496L599 496M601 380L601 380M602 380L601 379L602 380M602 381L603 380L602 381M604 380L603 381L604 380M606 241L606 241M607 240L607 240M607 240L608 241L607 240M612 391L612 391M612 374L613 373L612 374M613 390L613 390M613 387L613 387M613 387L613 387M613 370L613 370M614 365L614 365M614 388L613 389L614 388M614 369L614 369M614 370L614 370M614 361L615 360L614 361M614 372L614 372M614 372L614 372M615 361L615 361M616 370L616 370M616 365L616 365M616 367L616 367M617 389L617 389M617 364L616 365L617 364M617 362L617 362M618 362L618 362M618 361L618 361M618 359L618 359M618 275L618 275M619 358L619 358M619 399L619 399M619 358L619 358M620 255L620 255M621 363L621 363M622 253L621 252L622 253M622 402L618 395L617 388L623 378L628 373L630 373L632 375L632 380L628 392L624 397L624 403L622 402M622 252L622 252M622 253L622 253M623 251L623 251M623 226L623 226M623 249L623 249M624 248L624 248M624 249L624 249M625 268L625 268M625 349L625 349M625 353L625 353M625 349L626 348L625 349M626 349L627 348L626 349M628 313L633 316L632 317L626 313L628 313M628 306L628 306M628 396L628 396M629 401L629 401M630 402L630 402M630 316L630 316M630 338L630 338M631 342L631 342M631 318L629 317L631 318M631 317L633 318L631 317M631 329L631 329M631 341L631 341M631 342L632 341L631 342M632 344L632 344M632 329L631 330L632 329M632 318L632 318M632 344L632 344M632 371L632 371M632 377L632 377M632 329L632 329M632 319L633 318L632 319M632 327L632 327M633 338L633 338M633 332L633 332M633 330L633 330M633 328L633 328M633 324L633 324M633 330L633 330M633 330L633 330M634 330L634 330M634 330L634 330M634 328L634 328M634 327L635 328L634 327M634 328L634 328M634 335L634 335M634 333L633 332L634 333M634 333L634 333M634 330L635 331L634 330M635 331L635 331M635 331L635 331M635 333L634 332L635 333M635 331L636 330L636 332L635 331M636 240L636 240M636 330L636 330M636 326L636 326M637 326L637 326M637 240L637 240M637 239L637 239M637 324L637 324M638 240L639 239L638 240M639 329L639 329M639 242L638 241L639 242M639 323L639 323M639 323L639 323M641 236L640 237L641 236M641 237L641 237M642 242L642 242M643 369L645 369L643 369M645 368L645 368M646 367L647 368L646 367M646 370L646 370M646 369L646 369M646 370L646 370M646 234L646 234M653 367L652 368L653 367"/><path class="leaflet-interactive" stroke="#747569" stroke-opacity="0.6" stroke-width="1" stroke-linecap="round" stroke-linejoin="round" fill="none" d="M373 271L364 268L354 268L346 270L343 275L335 275L328 279L319 278L318 275L314 275L314 277L312 277L310 280L298 278L298 280L296 282L295 281L294 286L292 288L291 287L287 289M437 306L435 306L435 308L432 311L430 311L429 314L426 312L425 315L423 313L420 314L418 312L419 309L418 310L416 308L418 308L416 308L413 305L407 307L402 306L400 304L393 304L388 301L382 301L378 299L372 291L374 291L374 283L372 283L371 280L374 274L370 272L373 271M395 242L388 243L386 245L380 245L379 247L376 248L377 250L379 250L379 255L381 255L386 262L384 262L381 265L381 267L384 268L382 272L376 270L374 272L373 271M470 296L469 297L468 295L466 295L462 291L462 289L463 288L472 291L472 289L474 289L471 286L471 284L475 280L474 279L478 277L477 274L479 274L480 272L478 266L475 263L477 261L471 255L470 256L466 254L457 247L457 249L455 249L447 241L442 242L440 244L435 240L431 240L432 245L429 248L429 250L427 249L425 251L421 248L412 249L410 244L406 245L406 243L401 243L400 240L395 242M427 202L423 205L425 208L423 212L418 214L415 213L407 220L405 224L399 225L397 235L394 239L395 242M490 258L483 254L483 248L487 246L490 241L488 239L489 238L486 237L480 241L476 239L470 241L472 243L470 245L463 242L462 238L452 233L458 225L457 222L449 222L449 224L448 223L445 225L445 223L442 225L442 222L439 220L437 216L438 214L433 201M449 337L447 323L444 318L447 317L443 313L441 307L437 306M470 296L469 301L465 299L466 304L460 306L458 304L457 305L455 301L454 304L447 301L443 291L439 290L437 291L437 293L435 293L435 295L438 298L435 301L436 302L434 302L435 305L437 306M441 347L441 345L445 347L445 339L447 341L447 337L449 337M498 351L497 348L493 350L491 348L491 342L487 342L487 345L483 347L484 350L479 355L480 362L477 365L477 363L470 366L470 364L468 364L468 360L462 352L463 351L461 349L459 351L456 348L456 343L453 341L451 343L451 347L449 345L449 337M500 302L499 305L493 305L490 302L491 299L489 295L482 294L479 289L473 293L476 296L471 301L470 296M517 254L514 251L508 249L512 242L510 238L506 239L506 241L505 240L503 244L503 252L501 255L490 258M490 258L492 258L499 265L498 266L500 270L500 275L502 275L502 277L504 277L507 280L507 276L512 273L512 271L508 269L508 263L510 261L514 261M498 351L498 353L494 355L490 355L487 353L485 357L486 362L492 360L493 361L490 370L493 373L495 373L492 378M492 378L492 380L496 380L498 384L503 383L505 385L504 389L503 388L500 391M532 366L531 369L528 368L527 369L529 369L529 371L526 370L525 373L521 371L522 372L518 374L515 373L514 370L504 378L497 375L493 379L492 378M507 344L505 342L501 344L501 346L502 345L506 347L507 349L505 351L498 351M514 261L514 263L521 267L522 266L525 269L525 278L523 280L518 279L518 283L508 281L509 284L507 286L510 289L508 289L509 296L503 296L502 299L504 300L501 303L500 302M524 309L518 309L517 307L515 307L516 306L514 307L512 305L513 304L506 305L504 303L501 304L500 302M530 344L529 347L527 347L523 339L519 339L517 337L515 337L515 341L512 340L510 344L508 344L508 342L507 344M507 344L506 340L502 340L502 338L498 334L502 330L500 328L504 326L506 328L509 327L509 329L512 330L515 327L515 323L520 322L520 318L524 315L522 311L524 309M514 261L514 257L517 254M545 238L545 236L542 239L539 239L537 237L538 238L536 240L535 239L536 240L529 247L529 252L527 252L525 256L517 254M524 309L533 314M533 314L538 319L538 321L532 325L523 325L523 327L525 328L523 332L525 332L528 335L527 336L529 335L530 338M530 338L530 344M568 339L566 339L565 332L561 335L560 332L555 335L551 331L547 331L545 329L541 329L541 333L534 332L534 334L533 333L530 338M532 366L532 364L530 364L532 356L527 357L527 355L529 355L528 354L532 352L530 344M552 378L551 377L548 379L548 375L544 375L548 368L546 368L545 363L541 363L538 367L536 365L534 367L532 366M544 299L542 301L540 299L532 299L534 303L535 302L538 305L534 305L532 307L533 314M534 406L534 407M534 406L538 402L539 403L539 401L542 400L542 398L545 395L547 395L547 389L553 381L552 378M535 418L536 418M537 418L539 417M539 286L538 283L541 276L539 262L543 256L540 253L540 251L543 248L544 243L546 241L545 238M539 286L544 299M539 286L549 284L552 281L553 282L553 280L559 280L565 276L566 269M540 417L541 416M579 317L577 315L574 316L573 313L568 314L566 310L567 309L565 307L563 309L561 307L554 308L550 306L544 299M544 300L544 300M569 224L569 226L559 228L559 230L556 228L551 236L548 235L548 237L545 238M552 378L554 374L558 374L558 376L560 376L561 373L559 373L561 371L565 373L568 371M580 271L577 270L576 272L566 269M566 269L564 265L566 265L566 263L567 264L566 261L569 258L569 254L567 250L565 250L565 246L567 244L566 242L571 241L573 237L572 234L568 232L568 230L569 231L569 229L572 228L569 224M586 332L584 333L580 331L580 333L578 333L575 336L571 336L568 339M568 371L568 367L570 365L568 365L569 362L567 360L567 355L565 353L565 351L570 346L570 342L568 339M568 371L568 373L574 373L574 375L572 375L570 379L572 380L579 377L583 379L582 378L584 376M610 218L603 217L603 209L602 210L600 208L601 207L599 203L593 205L589 211L588 210L585 213L583 211L579 213L579 215L575 215L576 211L572 209L570 215L567 216L569 224M586 286L586 288L589 289L590 292L587 295L583 291L581 293L582 296L580 296L579 299L575 301L578 304L578 306L584 306L584 312L581 313L579 317M586 332L583 326L583 322L585 320L579 317M600 249L595 254L591 254L588 257L587 256L586 259L584 259L584 261L579 266L580 271M586 286L580 286L580 284L578 284L578 282L577 283L575 281L583 273L585 273L585 271L579 275L580 271M584 376L583 373L590 362L589 359L593 357L594 354L592 352L595 351L595 349L598 350L604 346M594 388L591 379L589 379L587 377L588 376L584 376M602 336L602 334L598 334L595 331L593 331L594 332L591 334L590 333L592 331L590 329L586 332M587 286L586 286M611 282L607 282L607 284L604 285L603 288L600 285L598 287L595 286L595 288L591 282L588 283L587 286M614 319L613 320L611 318L607 318L606 317L608 315L606 315L606 313L605 314L603 312L605 310L604 309L606 309L605 306L609 306L610 303L607 302L607 304L603 304L603 302L600 299L602 295L598 295L599 294L596 291L587 286M596 229L594 227L597 224L593 224L589 220L587 222L588 223L582 226L584 228L580 232L580 234L583 237L587 237L589 235L591 236M598 246L595 247L590 244L592 240L591 236M592 235L591 236M592 235L594 235L594 231M594 231L591 232L592 235M594 388L595 389M596 229L594 231M595 390L596 390M596 229L599 232L597 232L597 234L601 240M602 336L608 330L607 329L612 326L610 324L613 323L614 319M602 336L601 339L604 342L604 346M620 356L619 353L615 355L613 351L610 354L607 353L607 346L604 346M610 218L612 216L612 206L617 211L617 213L623 207L624 208L627 205L631 205L633 202L641 202L644 199L646 199L646 195M615 232L615 229L612 226L610 226L610 224L607 223L610 218M624 320L621 323L614 319M622 357L623 357M623 248L625 248M632 315L627 312L626 318L624 320M627 324L624 320M628 324L629 324M644 154L644 156L643 155L641 157L636 150L637 147L651 135L653 141L655 129L659 127L658 119L665 104L659 96L656 98L656 100L641 101L638 92L639 89L635 85L632 88L630 88L630 86L627 84L631 78L629 74M629 324L630 323M631 323L632 323M633 322L634 322M636 322L637 322M638 321L639 321M708 194L703 194L699 188L697 190L697 188L694 190L693 189L691 193L689 193L685 187L684 182L681 185L682 186L679 187L676 181L673 182L674 177L672 175L664 175L662 171L653 172L649 168L649 162L642 163M642 163L641 159L646 157L646 155L645 156L644 154M642 163L639 165L639 169L636 166L633 167L631 165L630 168L633 170L635 174L633 177L635 185L640 184L642 182L645 191L645 193L643 193L646 195M644 154L644 154M644 154L644 154M644 154L644 154M646 195L647 194L652 199L652 201L655 198L656 199L658 207L660 209L661 208L659 210L659 214L661 214L660 215L663 218L661 222L663 222M503 278L504 277L503 278M532 360L533 359L532 360M560 332L560 332"/><path class="leaflet-interactive" stroke="#3388ff" stroke-opacity="0" stroke-width="3" stroke-linecap="round" stroke-linejoin="round" fill="#eee" fill-opacity="0.5" fill-rule="evenodd" d="M595 225L597 225L592 224L590 220L585 225L582 226L584 228L583 230L580 231L580 234L583 237L587 237L589 235L590 236L592 234L591 231L596 230L594 228L595 225z"/><path class="leaflet-interactive" stroke="#3388ff" stroke-opacity="0" stroke-width="3" stroke-linecap="round" stroke-linejoin="round" fill="#eee" fill-opacity="0.5" fill-rule="evenodd" d="M599 238L600 237L597 234L597 232L599 232L596 229L594 231L594 235L591 236L592 240L590 244L598 246L600 242L599 241L601 239L598 238zM599 238L599 238z"/><path class="leaflet-interactive" stroke="#3388ff" stroke-opacity="0" stroke-width="3" stroke-linecap="round" stroke-linejoin="round" fill="#eee" fill-opacity="0.5" fill-rule="evenodd" d="M596 225L594 227L599 232L597 232L597 234L604 243L611 237L611 234L615 232L613 226L611 226L608 223L608 221L611 218L603 217L603 209L602 210L600 208L601 207L599 203L593 205L590 211L584 211L579 213L579 215L576 214L576 211L574 209L572 209L570 215L567 216L567 220L571 228L573 228L568 231L572 233L572 239L568 241L565 246L565 250L568 252L569 255L566 261L567 262L564 266L567 269L576 272L578 270L579 271L579 267L583 263L584 259L587 257L588 258L591 254L595 254L600 249L597 246L593 246L590 244L592 240L590 235L588 237L582 237L580 235L580 232L584 228L582 226L585 225L590 220L592 224L596 225zM594 231L591 232L592 235L594 235L594 231zM599 238L598 238zM607 240L607 241z"/><path class="leaflet-interactive" stroke="#3388ff" stroke-opacity="0" stroke-width="3" stroke-linecap="round" stroke-linejoin="round" fill="#eee" fill-opacity="0.5" fill-rule="evenodd" d="M539 286L549 284L552 281L553 282L553 280L559 280L565 276L566 269L564 265L567 263L566 262L569 257L568 252L565 249L567 245L566 242L571 241L573 237L572 234L568 231L573 228L571 228L570 224L565 228L562 227L559 228L558 230L556 228L551 236L549 235L546 238L543 248L540 251L540 253L543 256L539 262L541 274L538 283L539 286z"/><path class="leaflet-interactive" stroke="#3388ff" stroke-opacity="0" stroke-width="3" stroke-linecap="round" stroke-linejoin="round" fill="#eee" fill-opacity="0.5" fill-rule="evenodd" d="M433 201L438 214L436 216L442 222L442 225L446 225L448 223L449 224L449 222L456 222L458 225L457 229L452 233L462 238L462 242L465 242L468 245L470 245L472 243L470 241L475 239L479 241L483 238L488 237L490 241L487 246L483 248L483 254L491 258L500 255L503 252L503 244L505 240L506 241L506 239L509 238L512 241L512 243L508 249L511 251L515 251L515 253L520 254L520 256L525 256L526 253L529 252L528 249L536 240L535 239L536 240L538 238L537 237L539 239L541 239L544 236L546 238L549 235L550 236L556 228L558 230L562 227L565 228L569 226L567 216L570 215L572 209L574 209L576 211L575 214L578 215L583 211L585 213L588 210L589 211L592 209L592 205L596 205L599 203L601 207L600 208L602 210L603 209L603 217L610 218L612 216L612 210L610 208L612 206L617 211L617 213L623 207L624 208L627 205L631 205L637 201L640 202L646 198L646 196L643 193L645 193L645 191L642 182L635 186L633 179L635 175L630 168L631 165L633 167L636 166L639 169L639 165L642 163L641 159L646 157L645 154L643 154L644 155L642 157L640 156L640 154L636 150L637 147L645 142L651 135L653 141L655 129L659 127L658 119L665 104L659 96L656 98L656 100L641 100L638 93L639 88L637 88L634 85L631 88L627 84L631 78L630 75L625 74L617 82L617 84L622 84L623 91L616 98L617 99L612 106L613 107L610 113L612 113L611 116L598 123L590 119L583 135L583 139L581 140L581 143L584 146L587 143L596 146L600 141L605 142L615 152L616 157L614 159L609 158L607 156L599 159L597 158L595 161L591 161L586 167L587 168L582 172L574 172L569 178L565 180L559 179L556 176L551 176L548 184L552 192L544 196L539 202L527 206L516 205L507 208L496 215L493 214L492 212L481 211L477 208L475 209L468 204L447 204L434 202z"/><path class="leaflet-interactive" stroke="#3388ff" stroke-opacity="0" stroke-width="3" stroke-linecap="round" stroke-linejoin="round" fill="#eee" fill-opacity="0.5" fill-rule="evenodd" d="M645 234L649 234L656 226L657 227L663 222L663 218L660 215L661 214L659 214L659 210L661 208L660 209L658 207L658 203L655 198L652 201L652 198L647 194L645 199L642 200L643 201L636 201L636 203L634 202L631 205L627 205L617 213L617 211L612 206L610 208L612 210L612 215L608 220L608 223L611 226L613 226L615 232L621 229L621 227L626 222L631 222L635 226L632 229L633 230L628 234L629 235L626 237L630 239L630 241L629 240L629 242L628 241L626 245L631 242L632 243L631 242L637 237L645 234zM638 239L638 239zM635 240L635 240zM638 239L639 240L638 239zM639 242L638 241L639 242zM641 236L640 237L641 236zM637 239L637 240zM623 226L623 226zM641 237L641 237zM642 242L642 242zM646 234L647 234z"/><path class="leaflet-interactive" stroke="#3388ff" stroke-opacity="0" stroke-width="3" stroke-linecap="round" stroke-linejoin="round" fill="#eee" fill-opacity="0.5" fill-rule="evenodd" d="M694 206L696 199L698 199L702 205L702 203L700 202L704 201L707 198L708 195L700 192L700 188L698 190L696 188L692 190L691 193L689 193L685 187L684 182L681 185L682 186L679 187L676 181L673 182L674 177L672 175L664 175L662 171L658 173L656 171L653 172L649 168L649 164L647 162L643 162L639 165L639 169L636 166L633 167L631 165L630 168L633 170L635 175L633 177L635 185L637 186L642 182L645 191L645 193L643 193L645 195L647 194L650 197L651 196L651 199L653 201L655 198L656 199L658 207L660 209L661 208L659 210L659 214L661 214L660 215L663 218L663 222L666 221L672 212L676 216L683 217L681 210L689 210L692 205L694 206z"/><path class="leaflet-interactive" stroke="#3388ff" stroke-opacity="0" stroke-width="3" stroke-linecap="round" stroke-linejoin="round" fill="#eee" fill-opacity="0.5" fill-rule="evenodd" d="M645 163L649 163L649 167L653 172L656 171L658 173L662 171L664 175L672 175L674 177L673 182L676 181L680 187L682 187L681 184L684 182L685 187L689 193L691 193L691 191L696 188L698 190L700 188L700 192L706 195L707 188L705 179L712 174L721 177L722 176L722 172L729 161L728 160L731 152L730 151L735 146L735 138L738 136L722 140L719 143L718 142L719 143L717 145L706 146L702 141L704 139L701 134L703 131L699 131L692 124L689 125L686 122L680 123L678 121L678 114L676 114L675 107L672 104L673 101L671 101L672 98L670 97L671 96L668 92L669 91L665 83L666 82L662 80L663 79L661 77L655 77L645 71L630 73L629 74L631 78L626 84L629 85L630 88L632 88L635 85L639 89L638 92L641 101L656 100L658 96L665 103L663 111L658 118L659 126L655 128L653 141L651 135L640 146L637 147L636 150L641 157L643 155L644 156L644 154L645 156L646 155L646 157L641 158L642 162L645 163z"/><path class="leaflet-interactive" stroke="#3388ff" stroke-opacity="0" stroke-width="3" stroke-linecap="round" stroke-linejoin="round" fill="#eee" fill-opacity="0.5" fill-rule="evenodd" d="M624 320L628 324L633 321L628 316L626 316L624 320zM632 315L627 312L626 313L629 316L633 316zM631 318L629 316L631 318zM631 317L634 318L631 317zM630 316L629 316zM632 319L632 318zM632 318L632 318z"/><path class="leaflet-interactive" stroke="#3388ff" stroke-opacity="0" stroke-width="3" stroke-linecap="round" stroke-linejoin="round" fill="#eee" fill-opacity="0.5" fill-rule="evenodd" d="M595 287L594 288L591 283L587 285L594 291L597 291L599 295L601 295L600 300L602 300L604 304L608 302L610 304L609 307L605 305L606 308L603 312L605 314L606 313L606 315L608 315L606 318L612 318L611 319L615 319L621 323L628 315L626 314L627 312L632 315L632 312L624 304L620 291L612 285L610 281L607 282L604 288L602 288L600 285L598 287L595 287z"/><path class="leaflet-interactive" stroke="#3388ff" stroke-opacity="0" stroke-width="3" stroke-linecap="round" stroke-linejoin="round" fill="#eee" fill-opacity="0.5" fill-rule="evenodd" d="M604 346L607 347L607 353L610 354L614 351L615 354L619 353L621 356L622 352L626 350L625 347L626 348L630 346L630 338L633 337L631 333L634 331L630 330L625 325L627 323L624 320L621 323L615 319L613 323L610 324L612 326L609 327L607 329L608 330L601 337L601 339L604 342L604 345zM634 330L635 331L635 329L633 328L634 330zM634 328L634 329zM635 333L635 333zM636 323L636 323zM634 327L635 328L634 327zM635 328L635 327zM633 338L633 337zM636 331L636 331zM636 326L636 326zM631 341L632 341zM635 331L635 332zM631 338L631 338zM626 352L626 352zM632 323L633 324L632 323zM632 344L632 344zM634 333L633 332L634 333zM636 330L636 331zM637 324L637 324zM632 344L632 344zM633 328L633 328zM636 330L636 330zM631 330L632 329L631 330zM625 353L625 353zM632 337L633 338L632 337zM633 332L633 333zM632 329L632 329zM632 327L632 327zM634 330L634 330zM635 333L635 332zM626 350L626 350zM639 329L639 329zM635 327L635 327zM635 331L635 331zM639 323L639 323zM625 349L626 348L625 349zM626 349L627 348L626 349zM636 330L636 330zM639 323L639 323zM634 330L635 330zM633 330L633 330zM625 349L625 348zM636 331L636 331zM634 330L634 330z"/><path class="leaflet-interactive" stroke="#3388ff" stroke-opacity="0" stroke-width="3" stroke-linecap="round" stroke-linejoin="round" fill="#eee" fill-opacity="0.5" fill-rule="evenodd" d="M589 292L590 293L586 295L582 291L582 296L580 296L579 299L575 301L578 304L578 306L584 306L584 313L582 313L579 316L583 320L585 320L582 324L586 332L589 331L589 329L592 331L590 333L591 334L594 331L596 331L597 334L604 335L608 330L607 329L612 326L610 324L612 324L614 320L611 319L612 318L606 318L608 316L604 312L606 308L605 305L609 307L610 304L608 302L604 304L602 300L600 300L602 295L598 295L599 293L597 291L593 291L588 286L586 287L587 289L589 289L589 292zM607 316L608 316zM590 333L590 333zM580 307L580 307z"/><path class="leaflet-interactive" stroke="#3388ff" stroke-opacity="0" stroke-width="3" stroke-linecap="round" stroke-linejoin="round" fill="#eee" fill-opacity="0.5" fill-rule="evenodd" d="M609 376L608 373L610 375L609 374L612 373L610 373L610 371L616 371L612 369L614 369L614 365L616 363L614 361L616 361L616 359L617 360L615 362L618 361L617 360L620 357L620 355L615 355L613 351L611 354L608 353L606 345L603 346L603 348L599 350L596 349L593 352L594 354L589 359L590 362L588 366L585 368L583 376L587 376L589 378L588 379L591 378L592 385L595 388L602 382L601 379L605 380L607 378L606 377L609 376zM604 380L603 381L604 380zM612 374L613 373L612 374zM613 370L613 370zM616 365L616 364zM602 381L602 380zM616 360L616 360zM602 380L601 379L602 380zM616 365L616 365zM614 365L613 365zM617 362L617 362zM614 370L614 369zM615 361L615 361zM618 361L618 361zM619 358L619 358zM618 359L618 359zM614 361L615 360L614 361z"/><path class="leaflet-interactive" stroke="#3388ff" stroke-opacity="0" stroke-width="3" stroke-linecap="round" stroke-linejoin="round" fill="#eee" fill-opacity="0.5" fill-rule="evenodd" d="M602 336L601 334L597 334L596 331L594 331L591 334L590 333L592 331L590 329L584 333L580 331L580 333L578 333L575 336L571 336L568 339L570 341L570 346L566 350L565 354L567 354L566 357L569 362L568 364L570 364L568 372L574 373L570 378L572 380L579 377L582 379L583 378L585 369L590 362L589 359L594 355L593 352L596 349L599 350L604 347L604 343L601 339L602 336z"/><path class="leaflet-interactive" stroke="#3388ff" stroke-opacity="0" stroke-width="3" stroke-linecap="round" stroke-linejoin="round" fill="#eee" fill-opacity="0.5" fill-rule="evenodd" d="M587 286L588 283L591 282L594 287L598 287L600 285L603 288L605 285L607 285L606 284L608 282L612 281L612 279L619 272L619 270L619 272L622 271L623 268L624 269L623 266L624 267L632 263L635 264L638 258L628 258L628 256L622 254L618 255L619 256L615 259L615 261L611 261L608 257L611 256L611 254L608 251L605 252L600 249L595 254L591 254L588 257L587 256L587 258L586 257L587 258L584 259L584 261L579 266L579 275L585 271L585 273L583 273L575 281L582 287L587 286zM622 253L623 253zM622 252L622 252zM625 268L624 268zM623 251L623 250zM624 249L624 248zM618 275L618 274zM622 253L621 252zM623 249L623 249zM629 256L629 256zM629 256L629 256zM629 256L629 256zM580 273L580 273z"/><path class="leaflet-interactive" stroke="#3388ff" stroke-opacity="0" stroke-width="3" stroke-linecap="round" stroke-linejoin="round" fill="#eee" fill-opacity="0.5" fill-rule="evenodd" d="M558 308L561 307L564 309L566 307L568 314L573 314L574 316L577 315L579 317L580 314L584 313L584 307L580 307L578 303L575 302L579 300L582 291L586 295L590 293L586 286L580 286L580 284L578 284L577 282L576 283L575 280L585 272L580 273L579 275L580 272L578 270L576 272L567 269L565 276L560 280L553 279L552 282L539 287L546 303L553 308L557 308zM566 308L566 309z"/><path class="leaflet-interactive" stroke="#3388ff" stroke-opacity="0" stroke-width="3" stroke-linecap="round" stroke-linejoin="round" fill="#eee" fill-opacity="0.5" fill-rule="evenodd" d="M545 300L532 300L535 303L537 303L536 306L533 305L532 309L533 314L537 317L538 321L531 325L523 325L525 328L523 332L525 332L528 335L527 336L529 335L530 338L531 335L533 333L534 334L534 332L541 333L541 329L551 331L554 334L558 334L560 332L561 335L565 331L565 337L567 339L570 336L576 336L575 335L581 331L584 333L585 332L585 328L583 326L583 322L585 320L581 319L577 315L574 316L573 313L568 314L566 308L553 308L550 305L549 306L545 300zM529 325L529 325zM545 300L545 300zM558 308L558 308zM559 332L560 332z"/><path class="leaflet-interactive" stroke="#3388ff" stroke-opacity="0" stroke-width="3" stroke-linecap="round" stroke-linejoin="round" fill="#eee" fill-opacity="0.5" fill-rule="evenodd" d="M552 378L554 374L558 374L558 376L560 376L559 373L561 371L565 373L568 370L568 366L570 365L568 365L569 362L567 360L567 354L565 354L565 352L566 349L569 348L568 347L570 345L570 341L567 338L566 339L565 332L561 335L560 332L558 334L554 334L551 331L540 329L540 333L532 333L530 337L530 348L532 352L530 354L529 353L529 355L526 357L531 356L533 358L533 360L531 360L530 363L535 368L535 365L539 367L541 364L547 364L546 367L548 367L544 376L548 374L548 378L552 377zM532 360L532 360z"/><path class="leaflet-interactive" stroke="#3388ff" stroke-opacity="0" stroke-width="3" stroke-linecap="round" stroke-linejoin="round" fill="#eee" fill-opacity="0.5" fill-rule="evenodd" d="M565 400L566 396L572 398L573 395L575 397L578 394L580 396L582 394L588 394L591 391L591 389L594 388L591 378L588 379L589 378L587 376L583 376L583 379L581 379L580 377L572 380L570 378L574 374L573 372L568 373L568 371L562 371L560 373L559 372L561 374L559 376L557 374L553 375L554 376L552 378L552 384L547 389L548 392L545 396L542 397L541 400L539 400L538 403L537 402L535 405L534 404L535 407L533 411L535 417L539 417L541 415L538 412L540 408L552 405L554 403L562 403L565 400zM593 389L593 389zM559 404L558 405L559 404zM556 405L557 405zM570 401L570 401zM540 409L541 410L541 408L540 409zM556 405L556 404zM540 410L538 410L541 410zM566 402L566 402zM566 402L566 402zM561 403L561 403zM567 398L567 398zM570 402L570 402zM570 402L569 402zM591 412L592 413L590 414L592 414L591 412zM560 403L560 403zM539 413L539 413zM541 411L541 411zM541 416L541 416zM584 409L585 410L584 409zM584 410L584 410zM583 395L583 395zM583 395L583 395z"/><path class="leaflet-interactive" stroke="#3388ff" stroke-opacity="0" stroke-width="3" stroke-linecap="round" stroke-linejoin="round" fill="#eee" fill-opacity="0.5" fill-rule="evenodd" d="M532 366L531 369L528 368L527 369L529 369L527 371L526 370L525 373L524 371L522 371L521 374L519 374L513 370L511 374L504 378L497 375L494 379L492 379L499 384L504 383L506 385L505 388L503 388L500 391L503 394L508 393L510 395L508 399L510 400L509 402L520 406L525 404L528 405L528 407L530 407L533 405L534 406L534 404L535 405L538 402L539 403L539 401L542 400L542 398L548 393L548 387L552 385L551 383L553 381L551 377L548 379L547 374L545 376L544 375L548 368L546 368L546 364L541 364L538 367L536 365L535 368L532 366zM497 376L497 376zM529 410L529 410z"/><path class="leaflet-interactive" stroke="#3388ff" stroke-opacity="0" stroke-width="3" stroke-linecap="round" stroke-linejoin="round" fill="#eee" fill-opacity="0.5" fill-rule="evenodd" d="M537 419L530 420L525 425L525 431L527 433L533 435L541 429L541 426L545 422L542 418L537 418zM554 552L554 552zM562 518L563 517zM552 552L552 552zM548 444L549 443L548 444zM598 460L598 459zM554 551L554 551zM550 451L551 451zM549 451L550 451zM567 522L571 522L573 520L572 519L568 522zM568 511L569 512L568 511zM568 512L568 512zM552 450L552 450zM550 449L551 448L550 449zM554 512L554 512zM567 524L567 524zM570 512L570 512zM554 444L555 445L554 444zM574 499L574 499zM583 505L583 504zM573 503L574 502zM566 522L567 521zM532 524L534 522L536 523L532 523zM587 511L587 511zM556 453L557 452L556 453zM557 512L557 512zM572 495L573 495zM556 450L556 450zM588 499L589 499zM555 445L555 445zM548 449L549 449zM580 503L581 503zM574 517L574 517zM572 518L573 517zM578 515L579 516L578 515zM567 519L568 518zM580 507L580 507zM588 509L588 509zM565 511L566 510L565 511zM574 494L575 493L574 494zM573 491L573 490zM576 495L576 495zM549 449L549 449zM568 511L568 512zM536 520L536 519zM590 490L591 491L590 490zM550 448L550 448zM556 449L557 448L556 449zM550 452L551 452zM567 502L567 501zM575 517L575 517zM589 504L589 505zM579 501L579 501zM591 498L591 498zM574 451L574 451zM584 508L584 508zM566 509L566 509zM574 522L574 522zM572 496L573 496zM599 496L599 496zM570 500L570 500zM574 490L574 490zM590 498L590 498zM540 518L541 517L540 518zM548 514L548 514zM578 514L579 514zM562 518L562 518zM569 495L569 495zM595 500L595 499zM570 452L570 452zM541 518L541 518zM580 515L581 514zM549 522L549 522zM549 513L550 513zM540 520L540 520zM555 511L555 511zM588 504L588 504zM552 518L552 518zM572 456L572 456zM576 493L577 493zM569 453L569 453zM585 502L585 501zM595 497L595 496zM575 525L575 525zM559 511L559 511zM550 521L550 521zM554 512L554 512zM556 536L557 536zM573 512L573 511zM575 519L575 518zM560 515L560 515zM565 527L565 527zM590 450L590 450zM595 502L595 501zM560 423L560 423zM572 452L572 452zM567 426L567 426zM557 542L558 542zM549 519L549 519zM554 511L555 511zM559 520L560 520zM557 538L557 538zM556 538L556 537zM579 470L579 470zM565 500L565 500zM567 457L567 457zM560 543L560 543zM557 542L557 542zM555 538L555 538zM554 446L554 446zM554 455L554 455zM557 540L557 540zM556 537L556 537zM562 532L562 532zM586 506L586 506zM576 523L576 522zM549 520L549 520zM568 454L568 454zM576 452L576 453zM590 510L590 510zM557 449L558 449zM546 420L546 420zM582 499L583 499zM594 496L594 497zM558 450L558 450zM583 498L583 498zM556 506L557 506zM573 456L573 456zM595 493L595 494zM598 494L598 494zM570 507L570 507zM574 504L574 505zM557 535L557 535z"/><path class="leaflet-interactive" stroke="#3388ff" stroke-opacity="0" stroke-width="3" stroke-linecap="round" stroke-linejoin="round" fill="#eee" fill-opacity="0.5" fill-rule="evenodd" d="M507 344L508 341L509 344L513 340L514 341L516 337L518 337L519 340L523 338L523 342L525 342L525 344L528 347L531 343L531 339L529 335L527 335L527 333L523 332L525 328L523 326L525 326L526 324L529 325L537 322L538 319L536 316L534 314L530 314L528 311L524 309L524 311L522 311L524 315L520 319L521 318L519 323L515 323L516 324L512 330L510 330L509 327L506 328L502 326L502 328L500 328L502 330L499 336L502 337L502 339L504 339L507 343zM529 324L529 325zM501 329L501 329zM529 325L529 325zM512 330L512 330z"/><path class="leaflet-interactive" stroke="#3388ff" stroke-opacity="0" stroke-width="3" stroke-linecap="round" stroke-linejoin="round" fill="#eee" fill-opacity="0.5" fill-rule="evenodd" d="M465 356L470 366L479 363L479 355L484 350L484 346L485 347L487 345L486 344L490 342L490 346L492 346L490 348L492 350L498 348L499 351L506 351L506 347L502 345L501 346L501 344L504 341L507 344L506 340L502 340L502 338L498 334L502 331L501 328L500 329L503 326L506 328L509 327L509 329L512 330L516 323L520 322L520 318L524 315L522 311L524 311L524 309L520 309L517 307L516 308L516 306L513 307L512 304L505 305L505 303L503 303L501 305L500 302L499 305L493 305L490 302L491 299L489 295L482 294L479 289L474 292L476 296L471 301L470 296L469 301L465 299L466 304L460 306L458 304L457 305L455 301L454 304L447 301L443 291L437 291L435 295L438 298L435 300L436 301L434 303L442 309L446 317L444 319L447 323L449 344L451 347L451 343L453 341L457 345L456 348L459 351L461 349L465 356zM506 328L506 328zM512 329L512 329zM500 328L500 328z"/><path class="leaflet-interactive" stroke="#3388ff" stroke-opacity="0" stroke-width="3" stroke-linecap="round" stroke-linejoin="round" fill="#eee" fill-opacity="0.5" fill-rule="evenodd" d="M530 344L529 347L527 347L526 344L525 345L525 343L523 342L523 338L519 340L519 338L516 337L515 340L513 340L509 344L508 341L507 344L504 341L501 344L501 346L502 345L506 347L506 350L500 350L497 354L494 355L491 353L489 355L487 353L485 357L486 362L493 361L490 370L493 373L495 373L492 377L494 379L498 375L504 379L506 377L505 376L511 374L513 370L515 371L515 373L520 374L522 372L521 371L525 372L525 370L527 371L529 369L527 369L528 368L531 369L532 364L530 364L530 360L532 360L532 356L527 357L529 355L528 354L532 352L530 344zM532 359L532 359zM532 360L533 360z"/><path class="leaflet-interactive" stroke="#3388ff" stroke-opacity="0" stroke-width="3" stroke-linecap="round" stroke-linejoin="round" fill="#eee" fill-opacity="0.5" fill-rule="evenodd" d="M498 351L496 347L495 349L492 350L490 348L492 346L490 346L491 343L487 343L487 345L485 347L484 346L483 351L479 355L480 362L477 365L477 363L471 366L464 356L462 352L463 351L461 349L459 351L456 348L457 345L453 341L451 343L451 347L449 345L449 337L447 337L447 341L445 339L444 342L446 345L444 347L442 345L441 346L442 353L445 352L446 355L446 365L444 365L445 367L437 375L438 376L436 380L438 382L436 384L437 385L441 383L447 383L445 385L447 388L446 389L448 392L452 392L449 400L454 401L458 406L462 406L464 404L466 406L465 407L469 409L470 404L468 399L470 397L473 398L476 395L480 398L483 395L487 397L490 394L491 396L495 394L494 393L497 390L500 391L503 388L505 388L506 385L504 383L499 384L496 380L492 380L494 375L494 373L491 370L493 361L491 360L487 362L485 359L487 353L489 355L491 353L495 355L498 352z"/><path class="leaflet-interactive" stroke="#3388ff" stroke-opacity="0" stroke-width="3" stroke-linecap="round" stroke-linejoin="round" fill="#eee" fill-opacity="0.5" fill-rule="evenodd" d="M373 271L364 268L354 268L346 270L343 275L342 274L340 276L337 274L328 279L319 278L318 275L314 275L314 277L312 277L310 280L298 278L298 280L296 282L295 281L294 286L292 288L288 288L284 292L284 296L289 303L288 308L286 308L285 305L282 306L282 310L285 312L285 318L288 321L291 320L296 325L297 324L301 326L305 330L307 326L312 327L324 338L326 336L329 337L328 338L333 343L336 342L338 346L341 345L343 349L345 347L345 349L349 347L352 350L360 350L362 348L366 348L365 353L367 355L374 346L382 348L384 350L386 348L388 352L392 354L393 359L404 358L410 352L415 351L418 349L418 347L421 346L425 346L432 350L435 348L434 347L436 343L441 347L441 345L445 347L445 339L447 341L447 337L449 337L447 328L448 327L446 320L444 318L447 317L443 313L441 307L434 306L435 309L434 308L433 311L429 311L430 314L426 312L425 315L423 313L420 314L418 312L419 309L416 309L417 308L412 305L404 307L399 304L393 304L388 301L382 301L378 299L372 292L374 290L374 283L372 283L371 280L374 274L370 272L373 271z"/><path class="leaflet-interactive" stroke="#3388ff" stroke-opacity="0" stroke-width="3" stroke-linecap="round" stroke-linejoin="round" fill="#eee" fill-opacity="0.5" fill-rule="evenodd" d="M539 286L538 283L541 276L539 262L543 256L540 250L544 246L544 242L546 239L545 236L541 239L537 237L538 238L536 240L535 239L536 240L529 247L529 252L527 252L525 256L521 256L518 253L514 257L514 263L521 267L522 266L525 269L525 279L518 279L518 283L508 281L509 284L507 286L510 289L508 289L509 291L507 293L509 296L503 296L502 299L504 300L502 303L500 303L504 303L506 305L512 304L513 307L516 306L516 308L517 307L520 310L523 309L533 314L532 307L534 305L538 305L535 302L534 303L534 301L532 300L541 299L542 301L544 299L539 286zM544 297L544 297zM505 304L505 304z"/><path class="leaflet-interactive" stroke="#3388ff" stroke-opacity="0" stroke-width="3" stroke-linecap="round" stroke-linejoin="round" fill="#eee" fill-opacity="0.5" fill-rule="evenodd" d="M508 275L507 280L503 278L504 277L502 277L499 274L499 264L492 258L487 257L485 254L483 254L483 248L487 246L490 241L488 237L483 238L480 241L475 239L472 240L472 243L470 245L463 242L462 238L460 238L454 233L451 233L456 229L458 225L457 222L449 222L449 224L448 223L445 225L445 223L442 225L442 222L439 220L437 216L437 210L433 201L425 203L423 205L425 208L424 211L418 214L415 213L407 220L405 224L399 225L397 235L394 239L395 242L397 240L401 240L401 243L405 243L407 245L410 244L412 248L421 248L425 251L427 249L429 250L429 248L432 245L432 240L441 244L442 241L444 243L446 241L449 242L448 243L455 249L457 250L457 247L460 250L461 249L465 254L473 256L480 272L471 284L471 286L474 289L470 291L463 288L462 289L465 295L470 297L471 296L471 300L474 299L473 298L475 298L476 296L474 295L473 292L475 292L478 289L481 291L482 294L489 295L491 299L490 302L493 305L499 305L500 302L503 302L503 296L509 296L508 289L510 289L507 286L509 284L508 281L517 283L519 282L517 280L518 279L524 280L524 274L526 272L525 268L516 264L513 261L509 261L509 265L507 267L508 270L512 272L511 275L509 275zM504 277L505 277zM478 269L479 269zM505 278L505 278zM508 275L508 275z"/><path class="leaflet-interactive" stroke="#3388ff" stroke-opacity="0" stroke-width="3" stroke-linecap="round" stroke-linejoin="round" fill="#eee" fill-opacity="0.5" fill-rule="evenodd" d="M478 269L478 265L472 255L471 256L469 254L465 254L463 250L462 251L457 247L457 249L455 249L447 241L445 241L444 243L442 241L440 244L435 240L431 240L432 245L429 248L429 250L427 249L425 251L421 248L412 249L410 244L407 245L405 243L401 243L401 241L398 240L386 245L381 245L376 248L377 250L380 249L379 255L386 261L381 264L381 266L384 267L384 270L382 272L376 270L374 272L370 272L374 274L371 279L371 281L374 284L374 290L372 292L378 299L382 301L385 300L393 304L402 305L404 307L412 305L419 310L418 312L420 314L423 313L425 315L426 312L430 314L429 311L430 312L433 311L434 308L435 309L434 306L436 306L435 301L437 298L435 294L438 290L443 292L446 299L450 303L453 304L455 302L457 304L456 305L459 304L461 306L466 304L465 299L468 299L469 301L470 297L466 295L462 290L464 288L469 291L474 289L471 286L471 284L475 280L474 279L478 277L477 275L480 272L479 269z"/><path class="leaflet-interactive" stroke="#3388ff" stroke-opacity="0" stroke-width="3" stroke-linecap="round" stroke-linejoin="round" fill="#eee" fill-opacity="0.5" fill-rule="evenodd" d="M514 261L514 257L517 254L514 251L508 249L512 242L510 238L506 239L506 241L505 240L503 244L503 252L501 255L490 258L492 258L499 265L498 266L500 270L500 275L502 275L502 277L504 277L507 280L507 275L511 275L512 272L508 269L508 263L510 261L514 261zM504 277L504 278zM505 278L505 278z"/><path class="leaflet-interactive" stroke="#3388ff" stroke-opacity="0" stroke-width="3" stroke-linecap="round" stroke-linejoin="round" fill="#eee" fill-opacity="0.5" fill-rule="evenodd" d="M427 202L423 197L420 188L418 188L419 185L415 185L403 177L393 177L387 175L386 176L384 174L383 175L381 170L384 165L382 162L384 158L383 154L381 154L377 145L371 141L368 142L364 140L364 138L359 134L360 133L357 132L357 127L355 129L350 128L350 132L345 137L343 136L339 140L341 149L339 153L335 155L326 154L319 151L313 169L313 171L316 173L315 175L310 174L309 172L307 174L300 176L299 175L294 178L298 181L298 187L301 194L301 197L298 199L299 200L296 203L297 208L292 212L280 217L279 219L277 219L277 221L270 221L265 228L262 227L260 229L260 225L256 227L253 226L254 228L252 228L249 231L248 230L245 233L246 236L243 237L244 242L245 241L244 244L247 247L248 245L253 247L255 255L254 256L256 258L254 260L250 260L261 265L263 267L262 272L265 274L266 273L274 278L279 277L279 281L281 283L280 285L286 289L294 287L295 282L298 280L298 278L310 280L315 275L317 275L320 278L325 279L337 274L339 276L342 275L347 270L351 270L354 268L364 268L374 272L376 270L382 272L384 268L381 265L386 261L380 255L380 249L377 250L376 247L394 242L399 225L405 224L409 218L415 213L417 213L418 215L420 212L422 212L425 208L423 205L425 203z"/><path class="leaflet-interactive" stroke="#3388ff" stroke-opacity="0" stroke-width="3" stroke-linecap="round" stroke-linejoin="round" fill="#eee" fill-opacity="0.5" fill-rule="evenodd" d="M620 398L623 403L624 397L628 392L632 380L632 374L626 374L621 380L619 386L617 387L619 397zM653 367L653 367zM644 369L645 368L644 369zM614 388L613 389zM646 367L646 367zM613 387L612 388L613 387zM613 390L613 390zM613 387L613 387zM633 370L633 370zM628 396L629 396zM629 401L629 401zM633 371L634 371zM612 391L612 391zM619 399L620 399z"/><path class="leaflet-interactive" stroke="#3388ff" stroke-opacity="0" stroke-width="3" stroke-linecap="round" stroke-linejoin="round" fill="#eee" fill-opacity="0.5" fill-rule="evenodd" d="M569 397L569 399L567 399L568 400L572 398L569 397zM569 400L570 400zM571 398L571 398zM571 398L571 398zM571 398L571 398zM571 399L571 399zM571 398L571 398zM571 399L571 399zM571 399L571 399z"/><path class="leaflet-interactive" stroke="#3388ff" stroke-opacity="0" stroke-width="3" stroke-linecap="round" stroke-linejoin="round" fill="#eee" fill-opacity="0.5" fill-rule="evenodd" d="M565 401L565 400zM565 400L565 400z"/><path class="leaflet-interactive" stroke="#3388ff" stroke-opacity="0" stroke-width="3" stroke-linecap="round" stroke-linejoin="round" fill="#eee" fill-opacity="0.5" fill-rule="evenodd" d="M637 389L639 379L637 389zM626 412L632 404L626 412zM612 436L617 427L612 436zM609 461L609 452L609 461zM606 493L605 495L608 486L607 489zM581 526L586 519L581 526zM555 555L551 556L559 553L556 554zM522 534L523 535L522 527L522 534zM537 491L539 488L539 484L538 490zM535 459L531 451L534 457z"/></g></svg>