<svg width="1201" height="1178" viewBox="0 0 1201 1178" fill="none" xmlns="http://www.w3.org/2000/svg">
<path d="M8.03085 422.768L1.1875 409.065L11.4525 398.788L8.03085 395.362L21.7175 381.66H28.5609V374.808L31.9826 378.234L42.2476 371.382L45.6693 381.66H59.356L69.621 361.105L86.7294 364.531V357.68L90.151 361.105L110.681 343.977L134.654 333.7V309.698L144.919 306.273L134.654 265.143L124.389 261.717L141.497 251.44L144.919 254.866L158.606 248.014H179.136L172.292 234.311L189.401 193.181L206.509 203.458L237.326 200.033V165.712L261.299 152.009V138.306H281.829L278.407 148.583H285.25V155.435L292.094 162.286L295.515 158.86L298.937 169.137L322.91 175.989L333.175 186.266L343.44 210.267L336.597 244.546L346.862 254.823L350.283 251.397L367.392 258.249H394.786L418.759 278.803L429.024 275.377L425.603 278.803L446.133 319.933H535.139L589.907 343.934L603.594 340.508L607.015 347.36L658.362 326.806H699.443L716.551 319.954L750.789 289.101L740.524 278.824L743.946 261.696L750.789 254.844L781.606 265.121L805.579 244.567L815.844 247.993L826.109 241.141L839.795 220.587H853.482L874.012 206.884H887.699M887.699 206.884L884.277 210.31M887.699 206.884L894.542 213.736L904.807 210.31L901.385 193.181L880.855 172.627L870.59 169.201L856.904 182.904L850.06 176.053H836.374L829.53 182.904L819.265 169.201L826.109 165.776L843.217 117.794L863.747 128.071L877.434 114.369L894.542 110.943V90.3886L908.229 62.9616L921.916 49.2587V35.5558L908.229 28.7044L925.337 8.15008L928.759 11.5758L952.732 1.29865H980.126L1000.66 15.0015L1010.92 11.5758L1024.61 25.2787L1031.45 38.9815L1028.03 42.4073L1034.87 49.2587L1031.45 52.6844L1041.72 69.813L1038.29 73.2387L1051.98 93.793L1048.56 104.07H1055.4L1051.98 114.347L1058.82 124.624H1075.93L1103.33 145.179H1110.17L1117.01 158.882L1113.59 169.159L1123.86 182.862H1137.54L1178.63 162.307L1199.16 158.882L1192.31 165.733V186.287L1182.05 189.713L1185.47 196.565L1178.63 223.992L1168.36 234.269L1161.52 254.823L1158.1 258.249L1137.57 247.972L1123.88 261.674V313.081H1117.04L1110.19 319.933L1113.61 323.359L1099.93 309.656L1096.51 326.784H1089.66L1079.4 337.061H1065.71L1069.13 347.339L1062.29 354.19L1045.18 350.764L1048.6 347.339L1038.34 343.913L1034.92 354.19L1017.81 371.319H1010.96M1010.96 371.319L1014.39 374.744M1010.96 371.319L993.856 385.021M103.88 583.862L97.0369 570.159L100.459 566.733L107.302 573.585L114.145 566.733V559.882L103.88 549.605V535.902L110.724 529.051L93.6152 522.199V501.645H73.0852L62.8201 491.368H55.9768L49.1334 484.516V470.813L21.7388 463.962V457.11L28.5821 460.536M103.901 583.862L107.323 604.416H121.01L151.932 628.481L155.354 618.204H162.197L196.435 645.631L206.7 642.206L213.544 655.909L230.652 659.334L227.231 666.186H240.917L244.339 676.463L251.182 669.611L247.761 673.037L258.026 669.611L264.869 676.463L302.529 673.037L299.107 683.314L305.95 690.166L312.794 669.611L343.61 673.037L340.188 676.463L350.453 673.037L353.875 683.314H360.718L364.14 697.017H391.535L432.616 666.164H446.303L459.989 679.867L470.254 662.739L480.519 666.164L483.941 683.293L487.363 679.867L494.206 686.719V720.997H487.363L473.676 734.7L470.254 758.701H497.649H490.806V765.553L497.649 779.256L507.914 782.681L501.071 796.384L504.492 799.81H518.179L525.022 813.513L538.709 806.661L542.131 820.364H548.974V792.937H562.661V786.086H569.504L576.348 792.937L586.613 786.086L593.456 792.937L620.851 772.383L631.116 782.66L648.224 786.086L644.802 796.363L651.646 803.214L672.176 810.066M679.019 1125.4V1104.85M699.57 923.178L709.835 943.733M720.1 1002.01L713.257 1022.57M747.495 1176.81L768.025 1169.96M819.393 1101.4L833.079 1084.27M877.582 1029.44L887.848 1005.44M887.848 926.604V950.605M908.399 864.92L898.134 885.474M946.058 810.066L928.95 827.194M956.324 772.362L963.167 744.935" stroke="#201920" stroke-width="2" stroke-linecap="round" stroke-linejoin="round"/>
<path d="M28.5818 460.472L35.4252 453.62L28.5818 446.769V426.215L8.05176 422.789" stroke="#201920" stroke-width="2" stroke-linejoin="round" stroke-dasharray="4 4"/>
<path d="M795.42 789.511L788.576 796.362L795.42 799.788V789.511Z" stroke="#808080" stroke-linecap="round" stroke-linejoin="round" stroke-dasharray="8 8"/>
<path d="M791.998 792.936L785.155 786.085V792.936L774.89 803.214L771.468 799.788V806.639H750.938L744.095 813.491L716.7 820.342L723.544 834.045L716.7 840.897H709.857L706.435 810.044H672.197M904.977 700.4L898.134 714.102V727.805H904.977H891.291L894.712 731.231H887.869V738.082L877.604 748.36H870.761V755.211L857.074 768.914H850.231L833.122 786.042L822.857 782.617V789.468L805.749 786.042L798.905 789.468L802.327 792.894H795.484L798.905 796.32L792.062 792.894M904.999 700.378L922.107 686.675L918.685 683.25L928.95 676.398V669.547L932.372 672.973L939.215 666.121L940 644.5L942.637 648.971L946.059 645.546M946.037 645.524V631.821L926 612H935.794L946.059 611.5L942.616 597.564L935.772 594.139L933 590.67L929 587.287L946.059 590.67L942.637 580.393H935.794L932.372 570.116H925.529V556.413L915.264 532.412L891.291 515.283L894.712 505.006L911.821 487.877L908.399 484.452L918.664 487.877L925.507 474.175L935.772 470.749L939.194 467.323M952.902 405.639L928.929 422.768V415.916L939.194 412.49L932.351 398.788L949.459 381.659L942.616 367.956H928.929L918.664 378.233V385.085L898.134 391.936L894.712 402.213L884.447 412.49L887.869 409.065L877.604 412.49L881.026 415.916L867.339 409.065L860.496 422.768V429.619H867.339L877.604 439.896L887.869 436.47L894.712 443.322L887.869 450.173L891.291 460.45H904.977V453.599L918.664 443.322H925.507L935.772 453.599L946.037 450.173L959.724 457.025L956.303 467.302L946.037 463.876L935.772 470.728M952.902 628.417H949.48L946.059 624.991L952.902 628.417ZM952.902 628.417L956.324 631.843M993.983 385.063L983.718 395.341H970.032L952.923 405.618M702.992 1097.97L713.257 1094.55M720.101 1087.7L723.522 1091.12M720.101 1084.27L723.522 1080.85M744.074 919.752L747.495 923.178M744.074 1070.57L747.495 1073.99M754.339 1070.57L757.76 1067.14M754.339 933.455L757.76 930.029M761.182 810.065L764.604 806.639L768.025 810.065M761.182 926.603L764.604 923.178M761.182 1132.25L764.604 1135.68M761.182 1067.12L764.604 1070.55M768.025 1145.96L771.447 1142.53M774.869 1084.27L778.29 1080.85M781.733 1067.12L785.155 1063.7M785.155 1091.12L788.577 1094.55L802.263 1087.7M788.577 1067.12L791.998 1070.55M791.998 1056.84L795.42 1060.27M798.842 1032.86L802.263 1029.44M798.842 926.603L802.263 923.178M798.842 1084.27L802.263 1080.85M802.263 1015.71L805.685 1019.14M805.685 1049.99L802.263 1053.42M805.685 1084.27L809.107 1087.7M812.528 1077.42L815.95 1080.85M843.345 827.215L846.766 830.641M874.161 751.807L877.583 748.381M935.772 799.788L939.194 803.214M939.215 594.139L942.637 597.564H949.48M942.637 624.991L946.059 628.417M949.48 635.268L946.059 631.843M952.902 635.268L949.48 631.843M976.854 717.528L980.276 720.954M993.983 717.528L997.405 720.954M720.101 820.363L723.522 823.789H716.679L720.101 820.363ZM702.992 882.048L685.884 871.771V858.068L699.571 844.365L702.992 847.79L723.522 840.939L733.787 847.79L723.522 868.345L702.992 882.048ZM922.086 803.214L918.664 792.936L911.821 789.511L908.399 765.509L925.507 744.955V738.104L939.194 731.252L946.037 738.104L932.351 786.085L922.086 803.214ZM935.794 590L946.037 594.139H939.194L935.794 590ZM973.432 720.954L976.854 724.38H970.01L973.432 720.954Z" stroke="#4190DA" stroke-linecap="round" stroke-linejoin="round"/>
<path d="M316.152 487.899L309.309 481.047L271.649 477.622L251.119 484.473L237.432 498.176L227.167 494.75L210.059 505.027L186.086 501.602V494.75L158.67 508.453L138.14 501.602L127.875 511.879V518.73L121.031 525.582H107.345L110.766 529.007M473.613 570.159H466.769V577.01L456.504 580.436L459.926 583.861H453.083V590.713L446.239 583.861V590.713H435.974L429.131 577.01L425.709 580.436V573.584L412.023 566.733L398.336 573.584L360.676 563.307L353.833 556.456H333.303L319.616 542.753L323.038 539.327H316.194V487.92M370.92 412.491L326.417 426.193V433.045H333.26V446.748L346.947 457.025V463.876L336.682 467.302V474.153H343.525V487.856L322.995 481.005V487.856H316.152M371.026 412.533L381.291 409.107L401.821 422.81L408.665 419.384L415.508 429.662H436.038L442.881 436.513L453.146 433.087V426.236H459.99L456.568 415.959L463.411 409.107L480.52 419.384L494.206 412.533L511.315 429.662L521.58 433.087V426.236L538.688 443.365L555.797 446.79L569.483 460.493L566.062 463.919L576.327 487.92L569.483 501.623L572.905 498.197L562.64 501.623L555.797 515.326L562.64 529.029L559.218 532.454H531.824L545.51 546.157L548.932 542.732V549.583L552.354 546.157L548.932 556.434L538.667 553.009L542.089 563.286L535.245 570.137H521.559L518.137 559.86L511.294 566.712L501.029 556.434H494.185L487.342 535.88L477.077 532.454L466.812 542.732L473.655 549.583L466.812 563.286L473.655 570.137M446.239 319.954L439.396 326.805L442.818 340.508H435.974L425.709 350.785V343.934H418.866L394.893 371.361L381.206 374.786L367.519 409.065L370.941 412.491M465.5 319.954L477.077 347.423L470.233 354.275L483.92 364.552V374.829H494.185L511.294 364.552L518.137 367.977L521.559 381.68L507.872 391.957L535.267 405.66V412.512L545.532 422.789L559.218 415.938V409.086L576.327 412.512L593.435 402.235L600.278 415.938L583.17 429.64V443.343L600.278 453.62H607.122V460.472L610.543 457.046L620.808 467.323V494.75L624.23 491.325L641.338 508.453V494.75L651.603 491.325V484.473L641.338 474.196L648.182 467.345L644.76 463.919L658.447 460.493M501.007 645.546L497.586 611.267L490.742 600.99L494.164 597.564L487.321 590.713L483.899 573.584L473.634 570.159M480.456 669.547L494.143 666.121L490.721 655.844H497.564L500.986 645.567M620.83 679.824L617.408 669.547L603.721 676.398L600.3 659.27H593.456V666.121L583.191 669.547L586.613 679.824L572.926 686.676L576.348 710.677L566.083 707.251L552.396 714.102L531.866 672.973L525.023 679.824L518.179 672.973L521.601 669.547L514.758 655.844H507.914L504.493 666.121L501.071 662.695V645.567M620.83 679.824V686.676L603.721 683.25L586.613 693.527L590.035 703.804L607.143 707.23L600.3 720.933L610.565 731.21L607.143 744.913M620.83 679.824H634.516L641.36 672.973L627.673 662.695L634.516 655.844L641.36 662.695V655.844L620.83 642.141V635.29L631.095 631.864L624.251 625.013L631.095 618.161L637.938 625.013L648.203 621.587V628.438L655.046 625.013L665.311 614.735L661.89 611.31L675.576 604.458L682.42 577.031M624.251 563.286L617.408 570.137L607.143 566.712L600.3 559.86V546.157L586.613 539.306L583.191 542.732L576.348 529.029H569.505V535.88L559.24 539.306L566.083 546.157L555.818 556.434L552.396 546.157M665.333 443.343L644.803 429.64L655.068 412.512L648.224 405.66L631.116 419.363L627.694 446.79L600.3 453.642M665.333 443.343L658.489 460.472V467.323L685.884 481.026V501.58L672.197 508.432L668.776 505.006L665.354 515.283L648.246 511.858L641.402 525.56H648.246L641.402 539.263L644.824 542.689L634.559 546.115V559.818L624.294 563.243M665.333 443.343L679.062 450.173L689.327 446.748V439.896H696.17L692.749 429.619L706.435 419.342L709.857 409.065H716.7V402.213L723.544 409.065L733.809 398.788V405.639M607.122 744.955V751.807L610.543 748.381L620.808 758.658L624.23 755.232L637.917 762.084V768.935L624.23 775.787M607.164 744.934L624.273 738.083L634.538 744.934L655.068 731.231V724.38L665.333 734.657H672.197L689.306 724.38L692.727 727.805V720.954L702.992 717.528L699.571 690.101L689.306 693.527L702.992 679.824L699.571 662.695L692.727 669.547L679.041 655.844V648.993L668.776 652.418V645.567H661.932V652.418H655.089L644.824 662.695V655.844L641.402 662.695M624.273 563.307H634.538L641.381 570.159L651.646 566.733L658.489 573.584L661.911 570.159L672.176 580.436L682.441 577.01L702.971 590.713M702.992 590.713L713.257 594.139L716.679 604.416L699.571 618.119L689.306 614.693L679.041 631.822H685.884L692.727 638.673L689.306 642.099H696.149V648.95M696.149 648.971L699.571 662.674M788.577 648.971L781.733 635.268L771.468 642.12L768.047 631.843L761.203 638.694L747.517 628.417L744.095 631.843L730.408 624.991L720.143 635.268L709.878 631.843L696.191 648.971M750.917 744.955H744.074L740.652 734.678L733.809 741.53L730.387 738.104L740.652 720.975L737.23 710.698H730.387L733.809 707.272L716.7 717.55H703.014M750.917 744.955V758.658L740.652 768.935V782.638L706.414 810.065L709.836 813.491H706.414M750.917 744.955L754.339 734.678L768.025 741.53L774.869 727.827H788.555M730.366 553.009H702.971L709.814 559.86L706.393 563.286L716.658 566.712L702.971 573.563V590.692M709.836 840.918H713.257H720.101M720.101 522.156V467.323L726.944 453.62L723.522 436.492L730.366 429.64V415.938L737.209 409.086L733.787 405.66M720.101 522.156L723.522 535.859L733.787 546.136L730.366 552.987M720.101 522.156L750.917 511.879V505.027L768.025 508.453L781.712 501.602L785.134 481.047M720.101 837.492H723.522M815.95 597.564L791.977 587.287L785.134 573.584H750.896L730.366 553.03M733.83 405.618L750.938 398.766V391.915L761.203 381.638H781.733L791.998 371.361L798.842 381.638L788.577 388.489L798.842 391.915L802.263 402.192L798.842 412.469H791.998L781.733 422.746L791.998 446.748L781.733 470.749L785.155 481.026M819.393 484.473L809.128 487.899L785.155 481.047M788.598 648.971L795.441 642.12H809.128L805.706 638.694L819.393 631.843H833.08L826.236 618.14L829.658 607.863L815.971 597.586M788.577 648.993L795.42 666.121L781.733 679.824V686.676H788.577V714.102H795.42L788.577 727.805L805.685 731.231L791.998 744.934L795.42 748.36H809.107L815.95 741.508L822.793 748.36L826.215 738.083M792.041 371.339L788.619 354.211L802.306 333.656L812.571 350.785L822.836 340.508H843.366L850.209 326.805L863.896 319.954L874.161 337.082L870.739 347.359L887.848 357.637L891.269 354.211V333.656L898.113 326.805L908.378 343.934L935.772 323.379L939.194 326.805L946.037 319.954L970.01 316.528L980.275 302.825M833.08 522.156V529.007H839.923L843.345 539.285L833.08 542.71L819.393 535.859L822.815 546.136H815.971L809.128 559.839L812.55 570.116H826.236L829.658 580.393L815.971 597.522M833.08 522.156H819.393V515.305L805.706 508.453L829.679 487.899L815.993 494.75L819.414 484.473M833.08 522.156H836.501M867.318 429.619L857.053 443.322H843.366L833.101 457.025L829.679 453.599V460.451L815.993 474.153L819.414 484.431M877.583 666.164L850.188 679.867L853.61 690.144L839.923 696.995L843.345 707.272L833.08 717.55L826.236 738.104L846.766 748.381V762.084L853.61 768.935V772.361M870.739 642.12L853.631 631.843L846.788 638.694L839.944 624.991V631.843H833.101M870.739 642.12L884.426 635.268V621.566H891.269L894.691 611.288L898.113 614.714L901.534 601.011M870.739 642.12L867.318 645.546L877.583 655.823V666.121M894.691 511.879L891.269 508.453L870.739 529.007L867.318 518.73L853.631 525.582L846.788 511.879L836.523 515.305V522.156M836.523 522.177L870.761 546.179L867.339 556.456L870.761 553.03L874.182 566.733L887.869 559.881L891.291 563.307L887.869 573.584L884.447 570.159L874.182 580.436L887.869 600.99H901.556L918.664 611.267L925.508 604.416V611.288H932.351H935.772M857.031 385.064V371.361H850.188L839.923 361.083V367.935M857.031 385.064L853.61 388.489M857.031 385.064L863.875 391.915H857.031L863.875 402.192L867.296 398.766V409.044M839.923 367.935L836.501 364.509M839.923 367.935H833.08V374.786L822.815 378.212L826.236 381.638L819.393 395.341L826.236 402.192L846.766 398.766M846.766 398.766H853.61V388.489M846.766 398.766L843.345 391.915L853.61 388.489M860.474 422.768L850.209 426.193L843.366 419.342L846.788 398.788M857.031 772.361V775.787M915.242 693.548V686.697H901.556V679.845L894.712 686.697L884.447 683.271V669.568L877.604 666.143M904.977 388.489L898.134 374.786L884.447 367.935L891.291 354.232M922.086 429.619H928.929M946.059 590.713L928.95 587.287L932.372 590.713L925.529 604.416M973.432 203.415L966.589 210.267L952.902 189.712L963.167 179.435H970.01V172.584H976.854L990.54 155.455V162.307H997.384L993.962 158.881L1000.81 138.327L1011.07 134.901L1007.65 117.772L1021.34 97.2181L1024.76 80.0896L1011.07 62.961H1004.23L1007.65 66.3867L997.384 73.2381H969.989L959.724 59.5353L963.146 42.4067L949.459 35.5552L942.616 42.4067L932.351 32.0444L942.616 14.9158L935.772 8.06439M973.432 203.415L976.854 210.267L966.589 213.693L970.01 223.97L959.745 234.247L963.167 237.673L956.324 230.821L939.215 234.247L949.48 244.524V271.951L956.324 278.802L970.01 271.951L966.589 275.377L980.275 302.804L983.697 299.378L993.962 309.655V316.507L1000.81 309.655L1014.49 337.082L1011.07 347.359L1017.91 354.211L1017.91 370M973.432 203.415L970.01 199.99M942.637 611.288H946.059L949.48 607.863M952.902 607.841H956.324M1127.49 299.378L1110.38 295.952V282.249L1082.99 295.952L1072.72 285.675V271.972H1065.88L1062.46 282.249L1052.19 271.972L1055.62 268.547L1041.93 261.695L1045.35 258.269L1038.51 251.418L1028.24 254.844L1017.98 244.567H990.583L983.74 234.289V220.587L970.053 224.012" stroke="#747569" stroke-opacity="0.6" stroke-linecap="round" stroke-linejoin="round"/>
<path fill-rule="evenodd" clip-rule="evenodd" d="M857.031 374.786V371.361H850L840 361.5V368H833V374.786L822.814 378.212L826.236 381.638L819.393 395.341L826.236 402.192L846.5 398.5L843.344 391.915L853.5 388.5L857.031 385.064V374.786Z" fill="#0070B5" fill-opacity="0.5"/>
<path fill-rule="evenodd" clip-rule="evenodd" d="M867.318 399L863.896 402L857.053 391.936H863.896L857.053 385.085L853.5 388.5V399H847L843.5 419L850.5 426L860.5 422.5L867.318 409V399Z" fill="#EEEEEE" fill-opacity="0.5"/>
<path fill-rule="evenodd" clip-rule="evenodd" d="M857.032 371.361V385L863.875 391.915H857.032L863.875 402L867.5 398.766V409.5L880.983 415.916L877.562 412.49L887 409.5L894.5 402.5L898.092 391.915L905 389L898.092 374.786L884.405 367.935L891.248 354.232L887.827 357.658L870.718 347.381L874.14 337.103L863.875 319.975L850.188 326.826L843.345 340.529H822.815L812.55 350.806L802.285 333.678L788.5 354.5L792.02 371.5L798.863 381.638L789 388.5L798.863 391.915L802.5 402.192L798.863 412.49H792.02L782 422.725L792.02 447L782 470.706L785 480.5L809.5 488L819 484.5L815.993 474.132L829.5 460.5V454L833 457L843 443.5H857L867 429.5H860.496V422.725L850.5 426L843.5 419L846.809 398.724L826 402L819.5 395.5L826 381.638L823 378.5L833 374.5V368H840V361L850 371.361L857.032 371.318V371.361ZM853.61 388.489L843.345 391.915L846.809 398.724H853.61V388.489Z" fill="#EEEEEE" fill-opacity="0.5"/>
<path fill-rule="evenodd" clip-rule="evenodd" d="M720.101 522.156L750.917 511.879V505.027L767.5 508L781.712 502L785.134 481.5L781.712 470.749L791.5 446L781.712 422L791.5 412.5H798.82L802 402.213L798.82 391.936L788.555 388.5L798.82 381.659L791.5 371.382L781.712 381.659H761.182L750.917 391.936V398.788L734 406L736.5 409.5L730.387 415.916V430L723.544 436.47L727 454L720.101 467.5L720.101 522.156Z" fill="#0070B5" fill-opacity="0.19"/>
<path d="M749.667 437L745.593 439.413L743 441.524V444.841L747.333 446.5L750.5 449.5L753.5 450.5L757 452.984L759 456L761.5 456.5L764 455.5V452.984L766.5 446.5L769 443H773.5L772.5 440.5L771 438.5L775 436L777 431.5H775L768.5 436L764 437.5L761 435.5L758.185 436V439.413L749.667 437Z" fill="#0070B5" fill-opacity="0.5" stroke="#747569" stroke-opacity="0.38"/>
<path fill-rule="evenodd" clip-rule="evenodd" d="M466 320.5L477.034 347.381L470.5 354L483.878 364.53V374.808H494.143L500.986 371.382L511.251 364.53L518.094 367.956L521.516 381.659L508.5 391.5L535.224 405.639V412.491L545.5 422.5L559.176 415.916L559.261 409L576 412.491L593.393 402.213L600.236 415.916L583.128 429.619V443.322L600.236 453.5L628 446.5L631.052 419.5L648.161 405.639L655.004 412.491L645 429.5L665 443.322L679 450L689.5 446.5V439.5H696L692.642 429.5L706.5 419.5L710 408.5H717V401.5L723.5 408.5L733.702 398.788V405.639L750.96 398.788V391.5L761 381.659H782L791.871 371.382L788.449 354.253L802.136 333.699L812.401 350.828L822.666 340.55H843.5L850 326.848L864 319.5L873.5 337L870.569 347L888 357.5L891.1 354.253V333.699L898.5 326.848L908.208 343L936 323.422L939.024 326.848L946 319.5L969.819 316.549L980.084 302.5L976.663 295.995L966.398 275L969.819 272.015L956.133 278.866L949.289 272.015V244.5L939.024 234.311L956 230.5L959.5 234.311L969.819 224L966.398 213.756L976.663 210.331L973.5 204L966.398 210.331L952.711 189.776L962.976 179.499H969.819V172.648H976.663L990.349 155.519V162.371H997.193L993.771 158.945L1000.61 138.391L1010.88 134.965L1007.46 117.836L1021.14 97.282L1024.57 80.1534L1010.88 63.0248H1004.04L1007.46 66.4505L997.193 73.302H969.798L959.533 59.5991L962.955 42.4705L949.268 35.6191L942.425 42.4705L932.351 32.0444L942.425 14.5L936.5 9.5L928 12L925.5 9.5L910 28.5L922.086 35.6191V49.5L908 63.0248L894.712 89.5V111.5L877.583 115L863.896 127.964L843.366 117.687L834 146L826.258 165.669L820.5 169.5L829.679 182.797L836.523 175.946H850.209L857.053 182.797L870.5 169.5L881.5 172.648L901.556 193.074L905 210.331L894.5 213.756L888 206.905H874L853.5 220.608H839.5L826.258 240.5L815.993 247.907L805.728 244.481L781.755 265.036L750.96 255.5L744.116 262L741.5 278.5L750.96 289.016L717 320.5L700 326.72H658.532L607.186 347.274L603 341.5L589.971 344.5L559.176 331L535.224 320.5H497H466Z" fill="#EEEEEE" fill-opacity="0.5"/>
<path fill-rule="evenodd" clip-rule="evenodd" d="M983.5 395.341L994 385L1010.5 371.339L1017.91 370.5V354.232L1011.07 347.38L1014 337L1000.81 309.676L993.962 316.528V309.676L983.697 299.399L980.5 303L970 316.5L946 319.953L939 326.805L936 323.379L908.421 343.934L898.155 326.805L891.312 333.656V354L884.469 367.914L898.155 374.765L904.999 389L918.5 384.5V378.191L928.951 367.914H943L949.502 382L933 398.5L939.5 412.49L928.972 415.874L928.951 422L952.5 405.639L970.011 395.341H983.5Z" fill="#0070B5" fill-opacity="0.19"/>
<path d="M959 318.5L970 316.5L975.5 309.5L978 321L974.5 331.5L975.5 338.5L979.5 342.5V348.5L982 354L969 356L964 361.5L952.5 366L954.5 354L950.5 342.5L959 331.5L952.5 326.5L959 318.5Z" fill="#0070B5" fill-opacity="0.5" stroke="#747569" stroke-opacity="0.38"/>
<path fill-rule="evenodd" clip-rule="evenodd" d="M1096.5 326.805L1100 309.676L1113.5 323.5L1111 319L1117.21 313.5H1123.5V299L1110 295.973V282.249L1083 295.973L1072.5 285.5V271.972H1065.86L1062 282.249L1052.17 271.972L1055.59 268.546L1042 261.5L1045.5 258.5L1038 251.5L1028.22 254.844L1018 244.566H990.5L983.718 234.289V220.586L970.031 224.012L959.766 234.289L963.188 237.715L956.345 230.864L939.236 234.289L949.5 244.566V271.972L956.345 278.5L970.031 271.972L966.5 275.5L980 301.671L983.718 299.5L994.004 309.676V316.528L1000.85 309.676L1015 337.082L1011.11 347.381L1017.96 354.232V370L1034 354.232L1038.49 343.934L1048.75 347.381L1045.33 350.785L1062.44 354.232L1069.28 347.381L1065.86 337.082H1079.55L1089.5 326.805H1096.5Z" fill="#EEEEEE" fill-opacity="0.5"/>
<path fill-rule="evenodd" clip-rule="evenodd" d="M984 220.544V234L990.54 244.5H1018L1028.5 254.5L1038.5 251.5L1045.29 258.227L1041.87 261.653L1055.55 268.504L1052.13 271.93L1062.4 282.207L1066 271.93H1072.66V285.5L1083.5 295.5L1110.32 282.228V295.5L1122.5 298V261.653L1137.5 247.5L1158 257L1161 253.5L1168 233.5L1177.5 223.5L1184.5 196.5L1181.5 189.5L1192 185.5V166L1198 158.881L1178.5 162.5L1138.5 182.861H1123.96L1113 169L1117.12 158.881L1110 145.178H1103L1076 125.786H1059L1050.5 114.5L1054 105L1048 104L1050.5 94L1038 73.1743L1041 69.7486L1031 52.5L1034.5 49L1027.5 42.5L1031 38.5L1024.74 25.2781L1011.05 11.5752L1000.78 15.0009L980 1.19165H952.88L937 8.5L942.5 15.0009L933 32L942.5 42.3215L949.5 35L963 42.3215L960.5 59.5L970 73.1743H997.383L1007.65 66.5L1004 63H1011.05L1024.74 79.5L1021.5 98L1007.65 118L1011.05 135L1001 139L993.962 158.838L997.383 162H990.54V156.5L976.853 172.5H970.5V179.5H963L952.88 189.691L966.5 210L972.5 203.5L976.853 210L966.5 214.5L970.5 223L984 220.544Z" fill="#EEEEEE" fill-opacity="0.5"/>
<path fill-rule="evenodd" clip-rule="evenodd" d="M925.507 604.416V611.267H946.058L947 609.5L942.636 597.564L935.772 594.139L932.371 590.713L925.507 604.416ZM945 593.5L936.5 590L939.215 594.139H946.058L945 593.5Z" fill="#0070B5" fill-opacity="0.5"/>
<path fill-rule="evenodd" clip-rule="evenodd" d="M853.5 525.603L847 511.5L836 515.326V522.156L870.739 546.157L867.317 556.435L870.739 553.009L874.5 566L887.847 560L891.29 563L887.847 573.563L884.426 570.137L874 580.436L887.847 600.99H901.555L918.664 611.267L925.507 604.5L932 590.713L928.5 587L946.037 590.713L942.615 580.436H935.772L932.5 570.159H925.507V556.456L915.242 532.454L902.5 523L891.29 515.326L893 510L891.29 508.474L870.76 529.029L867.339 518.752L853.5 525.603Z" fill="#EEEEEE" fill-opacity="0.5"/>
<path d="M927.113 627.692L933.176 620.864L946.059 631.485V645.9L943.028 648.176L939.997 644.383L938.481 646.659L935.45 648.176L932.418 646.659L927.113 645.9L925.598 636.796L927.113 633.003L924.082 627.692H927.113Z" fill="#0070B5" fill-opacity="0.5" stroke="#747569" stroke-opacity="0.38"/>
<path fill-rule="evenodd" clip-rule="evenodd" d="M877.583 666.121L884.426 670V683.25L894.691 686.675L901.534 679.824V686.675H915.221V692L922.064 686.675L918.643 683.25L928.908 676.398V670L932.329 672.5L939.173 666.121L940 644L942.5 649L946.016 645.567V631.864L928.908 614.714L925.486 611.288V604.458L918.643 611.31L901.534 601.032L898.113 614.735L894.691 611.31L891 621.587H884.426V635.29L871 642L867.5 645.567L877.583 656V666.121ZM949.48 628.417L952.902 628L946.059 624.991L949.48 628.417Z" fill="#0070B5" fill-opacity="0.19"/>
<path d="M884.5 635.5L874 640.5L882.5 646.5H888L896.5 643.5H901.5L905 639L909 635.5L914 633L915.5 629L919 627L921 622L925.5 619L929 614.5L925.5 613L922 614.5L917 617.5L914 619L910.5 616.5L909 614.5L901.5 619H896.5L893 616.5L891.5 621.5H884.5V635.5Z" fill="#0070B5" fill-opacity="0.5" stroke="#747569" stroke-opacity="0.38"/>
<path fill-rule="evenodd" clip-rule="evenodd" d="M839.923 529L843.345 539.306L833.08 542.732L819.5 535.88L822.815 546.157H815.971L809.128 559.86L813 570.137H826.236L829.658 580.414L816.5 597.5L829.658 607.82L826.236 618.097L833.08 631.8H839.923V624.949L846.766 638.652L853.5 631.8L870.5 641.5L884.405 634.5L884.405 621.5H891.248L894.5 611L898 614.5L901.513 600.969H887.5L874.14 580.414L884.405 570.137L887.5 573.563L891.248 563.286L887.5 559.86L874.14 566.712L870.718 553.5L867.296 556.434L870.718 546.157L836.5 522.5H833.08V529H839.923Z" fill="#EEEEEE" fill-opacity="0.5"/>
<path fill-rule="evenodd" clip-rule="evenodd" d="M887.848 738.104V731.5H894L891.269 727.827H904.956H898.113L898.134 714.103L904.956 700.5L915.242 692V686.5H901.534V679.824L895.5 686.5L884.426 683V669.5L877.583 666.121L850.188 679.824L853.61 690.101L839.923 696.974L843.345 707.251L833 717L826 738.104L846.766 748.381V762.041L853.61 768.893H857.5L870.718 755.19V748.338L877.583 748.381L887.848 738.104Z" fill="#0070B5" fill-opacity="0.19"/>
<path fill-rule="evenodd" clip-rule="evenodd" d="M870.739 642.12L853.631 631.843L846.787 638.694L839.944 624.991V631.843H819.414L805.727 638.694L809.149 642.12H795.462L788.619 648.971L795.462 666.057L781.5 679.5V687H788.619V714.039H795.462L788.619 727.763L805.727 731.188L792.04 744.891L795.462 748.317H809.149L815.992 741.466L822.835 748.317L833.101 717.464L843 707.5L839.944 697L853.631 690.5L850 679.5L877.604 666.057V655.5L867.338 645.503L870.739 642.12Z" fill="#EEEEEE" fill-opacity="0.5"/>
<path fill-rule="evenodd" clip-rule="evenodd" d="M836.501 522.156V515.305L846.766 511.879L853.609 525.582L867.296 518.73L870.718 529.007L891.248 508.453L893 510L894.691 505L911.778 487.877L908.356 484.452L918.621 487.877L925.464 474.175L936.5 471L946.5 463.5L956 467.5L959.5 457L945.5 450.5L936 453L925.464 443.343H918.621L905 453V460.472H891.248L888 450.5L894.691 443.343L888 436.5L877.582 439.917L870.739 433.066L867.296 429.5L857.052 443.343H843.365L833.5 457L829.658 453.62V460.472L815.971 474.196L819.5 484.452L815.971 494.75L829.658 487.899L805.685 508.453L819.5 515.305V522.156H836.501Z" fill="#EEEEEE" fill-opacity="0.5"/>
<path fill-rule="evenodd" clip-rule="evenodd" d="M764.603 573.584H785.133L791.976 587.287L815.949 597.564L819.371 594.139L829.636 580.436L826.215 570.159H812.528L809.106 559.881L815.949 546.5H822L819.371 536L833.058 543L843.323 539.306L839.901 529.029H833.058V522.177H819.371V515L806 508.5L829.657 487.899L823.5 491L815.971 494.75L819.392 484.473L809.127 487.899L785.133 481L781.5 501.5L767.5 508.5L751 505V511.5L720 522.177L723.5 536L733.5 546.5L730.408 553.03L751 573.584H764.603Z" fill="#EEEEEE" fill-opacity="0.5"/>
<path d="M791.169 609.298L793.345 605.954L792.257 602.61L793.345 600.38H795.521L798.242 607.626L803.683 605.954L805.859 609.298L803.683 612.085L804.771 614.315L800.962 618.216V623.79L802.051 627.692L799.874 626.02L797.698 627.692H795.521L792.257 624.348L790.625 622.118L787.36 626.02L784.64 624.348L786.272 619.331V615.987L790.625 617.102V613.2L791.169 609.298Z" fill="#0070B5" fill-opacity="0.5" stroke="#747569" stroke-opacity="0.38"/>
<path fill-rule="evenodd" clip-rule="evenodd" d="M730.5 553.009H702.992L709.835 559.86L706.414 563.286L716.679 566.711L702.992 573.563V590.5L713 594L716.679 604.5L711.5 607.82L699.57 618.097L689.305 614.671L684 623.5L679.5 631.8H685.884L692.727 638.651L689.305 642.077H696.149V648.929L709.835 631.8L720 635.226L730.5 625L744.13 631.826L747 628L761.5 638.651L767.5 631.826L771 642.077L781.5 635.226L789 648.929L795.398 642.077H809.085L805.663 638.651L819.35 631.8H833.037L826.194 618.097L829.615 607.82L816 597L791.955 587.266L785.112 573.563H750.874L730.5 553.009Z" fill="#0070B5" fill-opacity="0.19"/>
<path fill-rule="evenodd" clip-rule="evenodd" d="M750.917 744.955L754.339 734.678L768.026 741.53L774.869 727.827H788.556L795.399 714.124H788.556V703V686.718H781.712V679.867L795.399 666.164L788.556 649L781.712 635.332L771.447 642.184L768.026 631.907L761.182 638.758L747.496 628.481L744.074 631.907L730.387 624.5L720.122 635.332L709 631.907L696.171 649L703.014 679.867L696.171 686.718L689.327 693.591L699.592 690.5L703.014 717.571H717L734 707L730.387 710.5H737L740.5 721L730.387 738.125L733.809 741.551L740.652 734.699L744.074 744.977L750.917 744.955Z" fill="#EEEEEE" fill-opacity="0.5"/>
<path fill-rule="evenodd" clip-rule="evenodd" d="M702.992 717.528L692.727 720.954V727.805L689.306 724.38L672.197 734.657L665.5 734.5L655.089 724.38V731L634.5 744.934L624.294 738.082L607 744.934V751.5L610.5 748.5L621 758.637L624.294 755.5L637.98 762V769L624.5 776L631.5 782.5L648 786.5L645 796L651.667 803L672.197 810H706.456L740.673 782.617V768.914L750.938 758.637V744.934H744.095L740.673 734.657L733.83 741.508L730.408 738.082L740.673 720.954L737 710.5H730.408L733.83 707.251L716.721 717.528H702.992Z" fill="#EEEEEE" fill-opacity="0.5"/>
<path fill-rule="evenodd" clip-rule="evenodd" d="M702.992 847.5L699.57 844.344L685.884 858.047V871.749L693 876L702.992 882.027L723.522 868L733.787 847.5L723.522 840.918L702.992 847.5ZM788.576 1094.55L802.263 1087.7L788.576 1091.12V1094.55Z" fill="#EEEEEE" fill-opacity="0.5"/>
<path fill-rule="evenodd" clip-rule="evenodd" d="M641.359 662.695L644.5 655.844V662.695L654.5 652.376H662.5V646H668.754V652.376L678.998 648.993V655.844L692.684 669.5L699.528 662.695L696.106 648.993V642.141H689.263L692.684 638.715L685.841 631.864H678.998L689.263 614.735L699.528 618.161L716.5 604.416L713.5 594.5L702.5 590.5L682.398 577.031L675.597 604.416L662.5 611.267L665.332 614.693L654.5 625L648.5 628V622L638 625L630.5 618.161L625 625L630.5 631.864L620.851 635.5V642.141L634.537 652.376L641.359 655.844V662.695Z" fill="#EEEEEE" fill-opacity="0.5"/>
<path d="M580.78 601.897L583.811 598.863L586.085 595.069L591.39 605.691L598.968 610.243L603.515 607.967L605.031 610.243L611.851 612.519L615.641 623.899L614.125 626.175H611.094L608.062 627.692L603.515 633.761L600.484 630.727L598.968 627.692L595.179 632.244L592.905 630.727L589.116 627.692L586.085 629.209L578.506 633.761L576.991 629.209L568.654 630.727L571.686 621.623L567.139 617.071L573.959 614.036L578.506 610.243L580.78 605.691V601.897Z" fill="#0070B5" fill-opacity="0.5" stroke="#747569" stroke-opacity="0.38"/>
<path fill-rule="evenodd" clip-rule="evenodd" d="M541.5 691.5L551.5 714.081L566 707.23L576.5 710L573 687L587 679.803L584 669.526L593.5 666.121V659.248H600.278L603.5 676.377L617.387 669.526L620.808 679.803H634.495L641.338 672.951L627.652 663L634.495 656L641.338 663V656L620.808 642.5V635L631.5 632L624 625L631.5 618.5L637.5 625L648 622V628.5L656 625L665.29 614.714L661.868 611.288L675.555 604.437L682.399 577.01L672.134 580.436L661.868 570.159L658.5 573.5L651.5 566.733L641.338 570.159L634.495 563.307H624.23L617.387 570.159L607.122 566.733L600.278 559.881V546.179L586.592 539.327L583.17 542.753L576 529H569.5V536L560 539.327L566.062 546.179L555.797 556.456L552.375 546.179L548.953 556.456L538.688 553.03L542.11 563.307L535.267 570.159H521.58L518.158 559.881L511.315 566.733L501.05 556.456H494.206L487.363 535.901L477.098 532.476L466.833 542.753L473.676 549.604L466.833 563.307L473.676 570.159L483.5 574L487.363 591.5L494.206 597.564L491 601L497.5 611.5L501.05 645.5V662.695L504.471 666.121L507.5 656H515L521.5 669.526L518 672.973L525 679L531.845 672.973L541.5 691.5Z" fill="#0070B5" fill-opacity="0.19"/>
<path fill-rule="evenodd" clip-rule="evenodd" d="M699.57 662.696L692.727 669.547L679.04 655.844V648.993L668.775 652.418V645.567H661.932L661.932 652.418H655.089L644.5 662.696L644.5 655.844L641.402 662.696L634.558 655.844L627.715 662.696L641.402 672.973L634.558 679.824H620.872L620.872 686.676L603.5 683.5L586.634 693.527L590.055 703.804L607.164 707.23L600.5 721L610.5 731.21L607.164 744.913L624 738L634.5 744.913L655.067 731.21L655.067 724.358L665.5 734.636H672.5L689.284 724.358L692.5 727.784L692.5 721L702.971 717L699.549 690L689.284 693.506L702.971 679.803L699.57 662.696Z" fill="#EEEEEE" fill-opacity="0.5"/>
<path fill-rule="evenodd" clip-rule="evenodd" d="M620.829 679.824L617.407 669.547L603.5 676.398L600 659.5H593.456V666.121L583.5 669.547L586.612 679.824L573 686.739L576 710.5L566 707.5L552.5 714L546.5 702.5L532 673.5L525 679.824L518.5 673L521.5 669.547L514.5 655.823H507.914L504.5 666.1L501.07 663V645.546L497.649 655.823H490.805L494.227 666.1L481.5 669.526L483.962 683.229L487.384 679.803L494.227 686.654V720.933H487.384L474 735L470.275 758.616H497.67H490.827V765.467L497.67 779.17L507.935 782.596L501.092 796.299L504.5 799.724L518.2 799.724L525.043 813.427L538.73 806.576L542 819.5H548.5V792.937H562V786.085L569.5 785.5L576.5 792.5L586.5 785.5L593.5 792L620.872 772L624.5 775.5L637.98 769V762L624.5 755.254L620.872 758.5L610.607 748.5L607 751V744.5L610.607 731L600.5 721L606.5 707.5L590.077 703.5L586.612 693.5L603.5 683.5L620.893 686.739V679.824H620.829Z" fill="#EEEEEE" fill-opacity="0.5"/>
<path fill-rule="evenodd" clip-rule="evenodd" d="M316.194 487.899L309.308 481.047L271.5 478L251.5 484.5L237.5 498L227 495L210 505.027L186 501.5V495L159 508.5L138 501.5L128 512V518.5L121.074 525.582H107.387L110.809 529.007L105 536V549L114.5 559.5L115.5 566.712L107.387 573.563L101 567.5L98 570L105 585L107.387 604.416L121.074 603.5L132.5 612.5L151.5 627.5L155.312 618.119H162.155L196.393 645.546L206.658 642.12L213.502 655.823L230.61 659.248L228 665.5H241L244.5 675.5L250.5 669.526V671L258 669.526L265 675.5L302.486 672.951L299.065 683.229L305.908 690.08L312.5 669.526L343.5 672.951L341 675.5L350.5 672.951L353.833 683.229H360.676L364.5 696.931H391.492L432.574 666.079H446.26L459.947 679.782L470.212 662.653L480.5 666.079L481.5 669.5L493.5 666.079L490.742 655.801H497.586L501.007 645.524L497.586 611L491 601L494 597.5L487 590.692L483.899 573.563L474 570.5H466.79V577L457 580.5L460 584H453V590.692L446.26 584V590.692H435.995L429.152 576.989L425.73 580.414V573.563L412.044 566.712L398.357 573.563L360.5 563.5L354 556.5H333.5L319.616 542.71L323.038 539.285H316.194V487.899Z" fill="#EEEEEE" fill-opacity="0.5"/>
<path fill-rule="evenodd" clip-rule="evenodd" d="M720.101 522.156V467.323L726.944 453.62L723.523 436.492L730.5 429.619V416L737.209 409.065L733.788 405.5V398.788L723.523 409.065L716.679 402.213V409.065H709.5L706.414 419.342L692.727 429.619L696 440H689.306V446.748L679.041 450.173L665.333 443.343L658.489 460.5V467.323L685.884 481V501.5L672 508.5L668.776 505.027L665.354 515.305L648.246 511.879L641.402 525.582H648.246L641.402 539.285L644.824 542.71L634.5 546V560L624.294 563.265H634.5L641.402 570L651.5 566.69L658.5 573.5L662 570L672.219 580.393L682.484 576.967L694 585L703.014 590.67V573.542L716.7 566.69L706.435 563.265L709.857 559.839L703.014 552.987H730.5L733 546L723.565 535L720.101 522.156Z" fill="#0070B5" fill-opacity="0.19"/>
<path d="M705 514.5L700.5 517L696.5 518.5L695 523.5L690 528L674 529V533L670.5 534.5L666.5 536L663 543.5L669.5 541.5H678.5L687 538L695 539L700.5 537L708.5 538L707 533L712.5 529L709.5 526.5H706L704 521.5L705 514.5Z" fill="#0070B5" fill-opacity="0.5" stroke="#747569" stroke-opacity="0.38"/>
<path fill-rule="evenodd" clip-rule="evenodd" d="M651.582 491.303L641.317 494.75V508L624.208 491.303L620.829 494.75V467.323L611 457.5L606.5 460.472V454H600.278L583.17 443.343V429.64L600.278 415.937L593.435 402.235L576.326 412.512L559.197 409V415.937L545.5 422.789L535.245 412.533V405.5L523.5 400L507.871 391.957L521.558 381.68L518.115 368L511.293 364.552L494.185 374.829H483.92V364.552L470.233 354.275L477.076 347.423L465 319.996H446.281L439.438 326.848L442.5 340H436.5L426 350.5V344H418.5L394.935 371.403L381.248 374.829L367.562 409.107L370.5 412.533L381.248 409.107L401.778 422.81L409.5 419.384L415.5 429.662H436.5L442.838 436.513L453.103 433.087V426.236H459.947L456.525 415.959L463.368 409.107L480.477 419.384L494.163 412.533L511.272 429.662L521.558 433.087V426.236L538.5 443.343L555.775 446.5L569.462 460.472L566.5 464L576.326 488L570.5 499L562.618 501.602L555.775 515.304L562.618 529.029L559.197 532.454H545.51H532.5L545.51 546.157L548.932 542.732V549.583L552.5 546.157L555.775 556.434L566.5 546.157L559.197 539.306L569.462 536V529.029H576.326L583.5 542.732L586.5 539.306L600.257 546.157V559.86L607.1 566.712L617 570L624.208 563L634.473 559.86V546.157L644.738 542.732L641.317 539.306L648 525.603H641.317L648 511.5L665.5 515.304L669 504.5L672 508L685.82 501.602V480.5L659 467.323L657.5 460.472L644.738 464L649.5 467.323L641.317 474.175L651.582 484.452V491.303Z" fill="#EEEEEE" fill-opacity="0.5"/>
<path fill-rule="evenodd" clip-rule="evenodd" d="M572.905 481.026L566.061 463.897L569.483 460.472L555.796 446.769L538.688 443.343L530 434.5L521.58 426.5V433.066L511 429.64L494.5 412.512L480.519 419.363L463.5 409.5L457 416L460 426.5H453.5V433.066L443 436.5L436.038 429.64H415.508L408.664 419.363L401.821 422.789L381.5 409.5L326.523 426.215V433.066H333.366V446.769L347.5 457.5V464L336.788 467.5V473.5L343.5 474.5V487.877L323.101 481.026V487.877H316.258V515V539.284H323.101L319.679 542.71L333.5 556.413H353.5L360.5 563L398.399 573.542L412.086 566.69L425.773 573.542V580.393L429.194 576.967L436.038 590.67H446.5V584L453 590.67V584H459.5L457 580.393L466.833 576.967V570.116H473.676L466.833 563.264L473.676 549.562L466.833 542.71L477.098 532.433L487.5 536L494.206 556.413H501.049L511.314 566.69L518.158 559.839L521.58 570.116H535.266L542.11 563.264L538.688 552.987L548.953 556.413L552.375 546.136L548.953 549.562V542.71L545.531 546.136L531.845 532.433H558.5L562.661 529L555.818 515.304L562.661 501.602L571.5 498.5L576 488L572.926 481.026H572.905Z" fill="#EEEEEE" fill-opacity="0.5"/>
<path fill-rule="evenodd" clip-rule="evenodd" d="M658.49 460.472L665 443L644.803 429.5L655.068 412L648.203 405.66L631 420L627.694 446.79L600.3 453.641H607.143V460.493L610.565 457.067L620.83 467.344V484.473V494.75L624.5 491.324L641.36 508.453V494.75L651.625 491.324V484.473L641.36 474.196L648.203 467.344L644.782 463.919L658.49 460.472Z" fill="#EEEEEE" fill-opacity="0.5"/>
<path fill-rule="evenodd" clip-rule="evenodd" d="M446.239 319.953L425.603 278.5L428 276L418.5 278.5L394 259H367.5L350 252L346.947 254.822L336.682 244.545L343.525 211L333 186.5L323.5 177L298.5 169L295.5 160L292.5 163L285.357 155.455V148.604H278.513L281.935 138.327H261.405V152.03L237.453 165.732V200.011L206.637 203.437L189.528 193.159L172.42 234.289L179.263 247.992H159L144.5 255.5L141.5 252.5L126 261.5L134.697 265.121L146 306.5L134.697 309.5L134.697 334L111 343.934L90.5 361.083L87 359L87 365L70 361.083L59.3985 381.638H45L42 372.5L31.9826 378L28.5609 376.5L28.5609 381.638L22 383L9 395.5L11.4525 399.5L1.1875 409.065L9 422.5L21.7175 424.5L28.5609 426.193L28.5609 446.5L35 454L28.5609 460L21.7175 457.025V463.876L35 467L49.091 471L49.0909 484L56 491.282H62.5L72 501.538H94.5L94.5 522L110.702 528.965L107.281 525.539H121.5L127.5 518.688L127.5 512L138.076 501.538L158.606 508.389L185.979 494.686L185.979 501.538L209.952 504.963L226.5 494.686L237.5 497.5L250.5 484.5L274.985 477.558L309.5 481L317 487.5H323L323 481L343.5 487.5L343.5 473.5H336L336 467L347 464L347 457.5L333.196 446.726V433.023H326.353V426.172L370.5 412L367.434 409L381.121 374.765L394.5 371L418.759 343.912H425.603V350.764L435.5 340H442L439 326.5L446.239 319.932V319.953Z" fill="#EEEEEE" fill-opacity="0.5"/>
<path fill-rule="evenodd" clip-rule="evenodd" d="M918.5 792.5L922 803.214L932.5 786L946.037 738.104L939.193 731.252L925.507 738.104V745L908.398 765.51L911.82 789.511L918.5 792.5Z" fill="#EEEEEE" fill-opacity="0.5"/>
<path fill-rule="evenodd" clip-rule="evenodd" d="M788.774 796.485L795.426 799.578L795.351 789.428L788.774 796.485Z" fill="#0070B5" fill-opacity="0.5"/>
<path fill-rule="evenodd" clip-rule="evenodd" d="M928.929 827.215L946.038 810.086L942.616 806.661L928.929 827.215ZM881.005 1022.57L877.583 1029.42L887.848 1005.42L884.426 1012.27L881.005 1022.57ZM757.761 1173.38L747.496 1176.81L768.026 1169.96L761.182 1173.38H757.761ZM716.679 1019.14L713.258 1022.57L720.101 1002.01L716.679 1015.71V1019.14ZM709.836 940.306L699.571 923.178L706.414 936.88L709.836 940.306Z" fill="#EEEEEE" fill-opacity="0.5"/>
<path d="M774.029 777.908L780.092 785.494L783.881 791.564V785.494L782.366 779.425L783.881 777.908L789.186 780.942L793.733 775.632L789.186 771.08L793.733 768.045L789.186 765.769L783.881 768.045V771.08H780.092L774.029 777.908Z" fill="#0070B5" fill-opacity="0.5" stroke="#747569" stroke-opacity="0.38"/>
<path d="M789.944 784.736L787.671 787.77L792.218 793.081L799.039 796.116L796.765 792.322H801.312L799.039 789.288L805.859 786.253H803.586L801.312 784.736L799.039 786.253L796.765 787.77L794.491 786.253L792.976 784.736H789.944Z" fill="#0070B5" fill-opacity="0.5" stroke="#747569" stroke-opacity="0.38"/>
<path fill-rule="evenodd" clip-rule="evenodd" d="M781.734 796.362L785.155 792.937V786.085L791.5 792.5L798.5 796.362L796.5 792.937H802L799.5 789.5L806 786.085L822.815 789.5V782.659L833.08 786.085L850.188 768.956H853L846.767 762V748.402L826.237 738.125L822.815 748.402L815.972 741.551L809.128 748.402H795.442L792.02 744.976L805.5 731.5L788.577 727.848H774.89L768.047 741.551L754.36 734.699L750.939 744.976V758.679L740.674 768.956V782.659L706.436 810.065L709.857 813.533H706.436L709.857 840.939H716.701L723.544 834.088L716.701 820.385L730.387 816.959L743.5 813.533L750.939 806.639H771.447L771.469 799.83L774.89 803.256L781.734 796.362Z" fill="#0070B5" fill-opacity="0.19"/>
</svg>
